<svg width="133" height="33" viewBox="0 0 133 33" fill="none" xmlns="http://www.w3.org/2000/svg">
<mask id="path-1-outside-1_1_1410" maskUnits="userSpaceOnUse" x="-1.0553" y="-0.487915" width="135" height="34" fill="black">
<rect fill="white" x="-1.0553" y="-0.487915" width="135" height="34"/>
<path d="M0.384702 12.1921C0.544702 9.87208 1.3047 7.87208 2.6647 6.19208C4.0247 4.48542 5.8247 3.17875 8.0647 2.27208C10.3314 1.33875 12.8914 0.872084 15.7447 0.872084C18.4647 0.872084 20.838 1.28542 22.8647 2.11208C24.8914 2.93875 26.478 4.09875 27.6247 5.59208C28.7714 7.08542 29.3447 8.80542 29.3447 10.7521C29.3447 12.2721 28.9447 13.6854 28.1447 14.9921C27.3447 16.2721 26.078 17.5521 24.3447 18.8321C22.6114 20.1121 20.3314 21.4721 17.5047 22.9121L8.8247 27.4721L8.4247 25.5121H30.1847V31.5121H0.904702V26.2321L13.7847 18.8321C15.838 17.6588 17.438 16.6588 18.5847 15.8321C19.758 14.9788 20.5847 14.1921 21.0647 13.4721C21.5447 12.7521 21.7847 11.9788 21.7847 11.1521C21.7847 10.2988 21.5447 9.53875 21.0647 8.87208C20.6114 8.20542 19.918 7.68542 18.9847 7.31208C18.0514 6.93875 16.878 6.75208 15.4647 6.75208C13.7847 6.75208 12.398 7.00542 11.3047 7.51208C10.2114 7.99208 9.39804 8.64542 8.8647 9.47208C8.33137 10.2988 8.01137 11.2054 7.9047 12.1921H0.384702ZM50.2344 32.1521C46.8477 32.1521 43.9144 31.4988 41.4344 30.1921C38.9544 28.8854 37.0344 27.0721 35.6744 24.7521C34.3144 22.4054 33.6344 19.6588 33.6344 16.5121C33.6344 13.3921 34.3144 10.6588 35.6744 8.31208C37.0344 5.96542 38.9544 4.13875 41.4344 2.83208C43.9144 1.52542 46.8477 0.872084 50.2344 0.872084C53.5944 0.872084 56.5144 1.52542 58.9944 2.83208C61.4744 4.13875 63.3944 5.96542 64.7544 8.31208C66.1144 10.6321 66.7944 13.3654 66.7944 16.5121C66.7944 19.6321 66.1144 22.3654 64.7544 24.7121C63.3944 27.0588 61.4744 28.8854 58.9944 30.1921C56.5144 31.4988 53.5944 32.1521 50.2344 32.1521ZM50.2344 25.9921C53.0877 25.9921 55.3011 25.1654 56.8744 23.5121C58.4744 21.8588 59.2744 19.5254 59.2744 16.5121C59.2744 13.4988 58.4744 11.1654 56.8744 9.51208C55.3011 7.85875 53.0877 7.03208 50.2344 7.03208C47.3811 7.03208 45.1544 7.85875 43.5544 9.51208C41.9544 11.1654 41.1544 13.4988 41.1544 16.5121C41.1544 19.5254 41.9544 21.8588 43.5544 23.5121C45.1544 25.1654 47.3811 25.9921 50.2344 25.9921ZM69.9941 12.1921C70.1541 9.87208 70.9141 7.87208 72.2741 6.19208C73.6341 4.48542 75.4341 3.17875 77.6741 2.27208C79.9407 1.33875 82.5007 0.872084 85.3541 0.872084C88.0741 0.872084 90.4474 1.28542 92.4741 2.11208C94.5007 2.93875 96.0874 4.09875 97.2341 5.59208C98.3807 7.08542 98.9541 8.80542 98.9541 10.7521C98.9541 12.2721 98.5541 13.6854 97.7541 14.9921C96.9541 16.2721 95.6874 17.5521 93.9541 18.8321C92.2207 20.1121 89.9407 21.4721 87.1141 22.9121L78.4341 27.4721L78.0341 25.5121H99.7941V31.5121H70.5141V26.2321L83.3941 18.8321C85.4474 17.6588 87.0474 16.6588 88.1941 15.8321C89.3674 14.9788 90.1941 14.1921 90.6741 13.4721C91.1541 12.7521 91.3941 11.9788 91.3941 11.1521C91.3941 10.2988 91.1541 9.53875 90.6741 8.87208C90.2207 8.20542 89.5274 7.68542 88.5941 7.31208C87.6607 6.93875 86.4874 6.75208 85.0741 6.75208C83.3941 6.75208 82.0074 7.00542 80.9141 7.51208C79.8207 7.99208 79.0074 8.64542 78.4741 9.47208C77.9407 10.2988 77.6207 11.2054 77.5141 12.1921H69.9941ZM103.484 11.1121C103.617 9.21875 104.284 7.49875 105.484 5.95208C106.684 4.40542 108.39 3.17875 110.604 2.27208C112.844 1.33875 115.537 0.872084 118.684 0.872084C121.43 0.872084 123.804 1.23208 125.804 1.95208C127.83 2.64542 129.404 3.61875 130.524 4.87208C131.644 6.09875 132.204 7.55208 132.204 9.23208C132.204 10.5921 131.79 11.8321 130.964 12.9521C130.164 14.0454 128.897 14.9254 127.164 15.5921C125.43 16.2321 123.217 16.5388 120.524 16.5121V15.7121C123.084 15.5788 125.284 15.7654 127.124 16.2721C128.964 16.7788 130.377 17.5788 131.364 18.6721C132.35 19.7654 132.844 21.1388 132.844 22.7921C132.844 24.6054 132.27 26.2188 131.124 27.6321C129.977 29.0188 128.297 30.1254 126.084 30.9521C123.897 31.7521 121.23 32.1521 118.084 32.1521C115.017 32.1521 112.337 31.7254 110.044 30.8721C107.777 29.9921 106.004 28.7788 104.724 27.2321C103.47 25.6588 102.79 23.8188 102.684 21.7121H110.204C110.417 23.1788 111.164 24.3121 112.444 25.1121C113.75 25.8854 115.63 26.2721 118.084 26.2721C120.404 26.2721 122.164 25.9254 123.364 25.2321C124.59 24.5121 125.204 23.5121 125.204 22.2321C125.204 21.4854 125.004 20.8721 124.604 20.3921C124.204 19.8854 123.524 19.4988 122.564 19.2321C121.604 18.9654 120.27 18.8321 118.564 18.8321H113.364V13.6721H118.564C120.777 13.6721 122.337 13.3654 123.244 12.7521C124.15 12.1121 124.604 11.2854 124.604 10.2721C124.604 9.15208 124.07 8.28542 123.004 7.67208C121.964 7.05875 120.39 6.75208 118.284 6.75208C116.097 6.75208 114.39 7.12542 113.164 7.87208C111.964 8.61875 111.244 9.69875 111.004 11.1121H103.484Z"/>
</mask>
<path d="M0.384702 12.1921L-0.612928 12.1233L-0.686639 13.1921H0.384702V12.1921ZM2.6647 6.19208L3.44197 6.8213L3.44676 6.81529L2.6647 6.19208ZM8.0647 2.27209L8.4399 3.19905L8.44545 3.19676L8.0647 2.27209ZM22.8647 2.11208L22.487 3.03802L22.8647 2.11208ZM27.6247 5.59208L26.8316 6.20111V6.20111L27.6247 5.59208ZM28.1447 14.9921L28.9927 15.5221L28.9976 15.5142L28.1447 14.9921ZM24.3447 18.8321L24.9387 19.6365L24.3447 18.8321ZM17.5047 22.9121L17.0507 22.021L17.0396 22.0268L17.5047 22.9121ZM8.8247 27.4721L7.8449 27.672L8.11112 28.9766L9.28978 28.3574L8.8247 27.4721ZM8.4247 25.5121V24.5121H7.20001L7.4449 25.712L8.4247 25.5121ZM30.1847 25.5121H31.1847V24.5121H30.1847V25.5121ZM30.1847 31.5121V32.5121H31.1847V31.5121H30.1847ZM0.904702 31.5121H-0.0952978V32.5121H0.904702V31.5121ZM0.904702 26.2321L0.406535 25.365L-0.0952978 25.6533V26.2321H0.904702ZM13.7847 18.8321L13.2886 17.9638L13.2865 17.965L13.7847 18.8321ZM18.5847 15.8321L19.1695 16.6433L19.1729 16.6408L18.5847 15.8321ZM21.0647 13.4721L20.2327 12.9174L21.0647 13.4721ZM21.0647 8.87208L20.2378 9.43439L20.2453 9.44549L20.2532 9.45639L21.0647 8.87208ZM18.9847 7.31208L19.3561 6.38361L18.9847 7.31208ZM11.3047 7.51208L11.7067 8.42773L11.716 8.42365L11.7252 8.41939L11.3047 7.51208ZM8.8647 9.47208L9.705 10.0142L8.8647 9.47208ZM7.9047 12.1921V13.1921H8.80242L8.89891 12.2996L7.9047 12.1921ZM1.38233 12.2609C1.52932 10.1295 2.22121 8.32925 3.44195 6.82128L1.88746 5.56289C0.388194 7.41492 -0.43992 9.61467 -0.612928 12.1233L1.38233 12.2609ZM3.44676 6.81529C4.68834 5.25723 6.34187 4.04823 8.4399 3.19903L7.68951 1.34514C5.30753 2.30927 3.36107 3.7136 1.88264 5.56888L3.44676 6.81529ZM8.44545 3.19676C10.5732 2.32063 13.0008 1.87208 15.7447 1.87208V-0.127916C12.7819 -0.127916 10.0895 0.356876 7.68395 1.34741L8.44545 3.19676ZM15.7447 1.87208C18.3656 1.87208 20.6055 2.27056 22.487 3.03802L23.2424 1.18615C21.0706 0.300272 18.5638 -0.127916 15.7447 -0.127916V1.87208ZM22.487 3.03802C24.3765 3.80875 25.8093 4.86981 26.8316 6.20111L28.4179 4.98306C27.1468 3.32769 25.4062 2.06875 23.2424 1.18615L22.487 3.03802ZM26.8316 6.20111C27.8393 7.51348 28.3447 9.01762 28.3447 10.7521H30.3447C30.3447 8.59321 29.7035 6.65736 28.4179 4.98306L26.8316 6.20111ZM28.3447 10.7521C28.3447 12.0863 27.9964 13.3191 27.2919 14.4699L28.9976 15.5142C29.893 14.0517 30.3447 12.4579 30.3447 10.7521H28.3447ZM27.2967 14.4621C26.5853 15.6003 25.4226 16.793 23.7507 18.0277L24.9387 19.6365C26.7334 18.3112 28.1041 16.9439 28.9927 15.5221L27.2967 14.4621ZM23.7507 18.0277C22.0769 19.2636 19.8491 20.5955 17.0508 22.021L17.9586 23.8031C20.8137 22.3487 23.1458 20.9605 24.9387 19.6365L23.7507 18.0277ZM17.0396 22.0268L8.35963 26.5868L9.28978 28.3574L17.9698 23.7974L17.0396 22.0268ZM9.80451 27.2721L9.40451 25.3121L7.4449 25.712L7.8449 27.672L9.80451 27.2721ZM8.4247 26.5121H30.1847V24.5121H8.4247V26.5121ZM29.1847 25.5121V31.5121H31.1847V25.5121H29.1847ZM30.1847 30.5121H0.904702V32.5121H30.1847V30.5121ZM1.9047 31.5121V26.2321H-0.0952978V31.5121H1.9047ZM1.40287 27.0992L14.2829 19.6992L13.2865 17.965L0.406535 25.365L1.40287 27.0992ZM14.2808 19.7003C16.3474 18.5195 17.9817 17.4996 19.1695 16.6433L17.9999 15.0209C16.8943 15.8179 15.3287 16.798 13.2886 17.9638L14.2808 19.7003ZM19.1729 16.6408C20.3862 15.7584 21.3215 14.8897 21.8968 14.0268L20.2327 12.9174C19.8479 13.4945 19.1299 14.1991 17.9965 15.0233L19.1729 16.6408ZM21.8968 14.0268C22.4809 13.1506 22.7847 12.1857 22.7847 11.1521H20.7847C20.7847 11.7718 20.6085 12.3535 20.2327 12.9174L21.8968 14.0268ZM22.7847 11.1521C22.7847 10.0977 22.4837 9.13154 21.8762 8.28778L20.2532 9.45639C20.6057 9.94596 20.7847 10.4998 20.7847 11.1521H22.7847ZM21.8916 8.30977C21.3014 7.44185 20.4285 6.81258 19.3561 6.38361L18.6133 8.24056C19.4075 8.55825 19.9213 8.96898 20.2378 9.43439L21.8916 8.30977ZM19.3561 6.38361C18.2671 5.94803 16.9574 5.75208 15.4647 5.75208V7.75208C16.7986 7.75208 17.8356 7.92947 18.6133 8.24056L19.3561 6.38361ZM15.4647 5.75208C13.6931 5.75208 12.1506 6.01794 10.8842 6.60477L11.7252 8.41939C12.6455 7.9929 13.8763 7.75208 15.4647 7.75208V5.75208ZM10.9027 6.59644C9.66859 7.13825 8.6849 7.90619 8.02441 8.92996L9.705 10.0142C10.1112 9.38465 10.7541 8.84592 11.7067 8.42773L10.9027 6.59644ZM8.02441 8.92996C7.40584 9.88873 7.03375 10.9445 6.9105 12.0846L8.89891 12.2996C8.98898 11.4664 9.25689 10.7088 9.705 10.0142L8.02441 8.92996ZM7.9047 11.1921H0.384702V13.1921H7.9047V11.1921ZM41.4344 30.1921L40.9683 31.0768L41.4344 30.1921ZM35.6744 24.7521L34.8092 25.2535L34.8117 25.2578L35.6744 24.7521ZM35.6744 8.31208L34.8092 7.81066L35.6744 8.31208ZM41.4344 2.83208L41.9005 3.7168V3.7168L41.4344 2.83208ZM58.9944 2.83208L58.5283 3.7168V3.7168L58.9944 2.83208ZM64.7544 8.31208L63.8892 8.81351L63.8917 8.8178L64.7544 8.31208ZM64.7544 24.7121L65.6196 25.2135L64.7544 24.7121ZM58.9944 30.1921L59.4605 31.0768L58.9944 30.1921ZM56.8744 23.5121L56.1558 22.8166L56.15 22.8227L56.8744 23.5121ZM56.8744 9.51208L56.1499 10.2015L56.1558 10.2075L56.8744 9.51208ZM43.5544 9.51208L44.273 10.2075L43.5544 9.51208ZM43.5544 23.5121L42.8358 24.2075L43.5544 23.5121ZM50.2344 31.1521C46.9766 31.1521 44.2098 30.5241 41.9005 29.3074L40.9683 31.0768C43.6189 32.4734 46.7188 33.1521 50.2344 33.1521V31.1521ZM41.9005 29.3074C39.5781 28.0837 37.7987 26.3985 36.5371 24.2464L34.8117 25.2578C36.2701 27.7456 38.3307 29.6871 40.9683 31.0768L41.9005 29.3074ZM36.5396 24.2507C35.2812 22.0793 34.6344 19.5112 34.6344 16.5121H32.6344C32.6344 19.8063 33.3476 22.7316 34.8092 25.2535L36.5396 24.2507ZM34.6344 16.5121C34.6344 13.5413 35.2804 10.9862 36.5396 8.81351L34.8092 7.81066C33.3483 10.3313 32.6344 13.2428 32.6344 16.5121H34.6344ZM36.5396 8.81351C37.802 6.63524 39.5811 4.93887 41.9005 3.7168L40.9683 1.94737C38.3277 3.33863 36.2668 5.29559 34.8092 7.81066L36.5396 8.81351ZM41.9005 3.7168C44.2098 2.50007 46.9766 1.87208 50.2344 1.87208V-0.127916C46.7188 -0.127916 43.6189 0.550768 40.9683 1.94737L41.9005 3.7168ZM50.2344 1.87208C53.464 1.87208 56.2179 2.4995 58.5283 3.7168L59.4605 1.94737C56.8109 0.551331 53.7248 -0.127916 50.2344 -0.127916V1.87208ZM58.5283 3.7168C60.8477 4.93887 62.6268 6.63524 63.8892 8.81351L65.6196 7.81066C64.162 5.29559 62.1011 3.33863 59.4605 1.94737L58.5283 3.7168ZM63.8917 8.8178C65.1475 10.9601 65.7944 13.5127 65.7944 16.5121H67.7944C67.7944 13.2182 67.0813 10.3041 65.6171 7.80636L63.8917 8.8178ZM65.7944 16.5121C65.7944 19.4828 65.1483 22.038 63.8892 24.2107L65.6196 25.2135C67.0804 22.6928 67.7944 19.7813 67.7944 16.5121H65.7944ZM63.8892 24.2107C62.6268 26.3889 60.8477 28.0853 58.5283 29.3074L59.4605 31.0768C62.1011 29.6855 64.162 27.7286 65.6196 25.2135L63.8892 24.2107ZM58.5283 29.3074C56.2179 30.5247 53.464 31.1521 50.2344 31.1521V33.1521C53.7248 33.1521 56.8109 32.4728 59.4605 31.0768L58.5283 29.3074ZM50.2344 26.9921C53.2886 26.9921 55.7917 26.1004 57.5988 24.2014L56.15 22.8227C54.8104 24.2304 52.8868 24.9921 50.2344 24.9921V26.9921ZM57.593 24.2075C59.424 22.3154 60.2744 19.7018 60.2744 16.5121H58.2744C58.2744 19.349 57.5247 21.4021 56.1558 22.8167L57.593 24.2075ZM60.2744 16.5121C60.2744 13.3224 59.424 10.7087 57.593 8.81666L56.1558 10.2075C57.5247 11.6221 58.2744 13.6751 58.2744 16.5121H60.2744ZM57.5988 8.82272C55.7917 6.92376 53.2886 6.03208 50.2344 6.03208V8.03208C52.8868 8.03208 54.8104 8.79374 56.15 10.2014L57.5988 8.82272ZM50.2344 6.03208C47.1794 6.03208 44.6674 6.92395 42.8358 8.81666L44.273 10.2075C45.6413 8.79355 47.5827 8.03208 50.2344 8.03208V6.03208ZM42.8358 8.81666C41.0047 10.7087 40.1544 13.3224 40.1544 16.5121H42.1544C42.1544 13.6751 42.904 11.6221 44.273 10.2075L42.8358 8.81666ZM40.1544 16.5121C40.1544 19.7018 41.0047 22.3154 42.8358 24.2075L44.273 22.8167C42.904 21.4021 42.1544 19.349 42.1544 16.5121H40.1544ZM42.8358 24.2075C44.6674 26.1002 47.1794 26.9921 50.2344 26.9921V24.9921C47.5827 24.9921 45.6413 24.2306 44.273 22.8167L42.8358 24.2075ZM69.9941 12.1921L68.9964 12.1233L68.9227 13.1921H69.9941V12.1921ZM72.2741 6.19208L73.0513 6.8213L73.0561 6.81529L72.2741 6.19208ZM77.6741 2.27209L78.0493 3.19905L78.0548 3.19676L77.6741 2.27209ZM92.4741 2.11208L92.0964 3.03802L92.4741 2.11208ZM97.2341 5.59208L96.4409 6.20111V6.20111L97.2341 5.59208ZM97.7541 14.9921L98.6021 15.5221L98.6069 15.5142L97.7541 14.9921ZM93.9541 18.8321L94.5481 19.6365L93.9541 18.8321ZM87.1141 22.9121L86.6601 22.021L86.649 22.0268L87.1141 22.9121ZM78.4341 27.4721L77.4543 27.672L77.7205 28.9766L78.8992 28.3574L78.4341 27.4721ZM78.0341 25.5121V24.5121H76.8094L77.0543 25.712L78.0341 25.5121ZM99.7941 25.5121H100.794V24.5121H99.7941V25.5121ZM99.7941 31.5121V32.5121H100.794V31.5121H99.7941ZM70.5141 31.5121H69.5141V32.5121H70.5141V31.5121ZM70.5141 26.2321L70.0159 25.365L69.5141 25.6533V26.2321H70.5141ZM83.3941 18.8321L82.8979 17.9638L82.8959 17.965L83.3941 18.8321ZM88.1941 15.8321L88.7789 16.6433L88.7822 16.6408L88.1941 15.8321ZM90.6741 13.4721L89.842 12.9174L90.6741 13.4721ZM90.6741 8.87208L89.8472 9.43439L89.8547 9.44549L89.8625 9.45639L90.6741 8.87208ZM88.5941 7.31208L88.9655 6.38361L88.5941 7.31208ZM80.9141 7.51208L81.3161 8.42773L81.3253 8.42365L81.3345 8.41939L80.9141 7.51208ZM78.4741 9.47208L79.3144 10.0142L78.4741 9.47208ZM77.5141 12.1921V13.1921H78.4118L78.5083 12.2996L77.5141 12.1921ZM70.9917 12.2609C71.1387 10.1295 71.8306 8.32925 73.0513 6.82128L71.4968 5.56289C69.9976 7.41492 69.1695 9.61467 68.9964 12.1233L70.9917 12.2609ZM73.0561 6.81529C74.2977 5.25723 75.9512 4.04823 78.0493 3.19903L77.2989 1.34514C74.9169 2.30927 72.9704 3.7136 71.492 5.56888L73.0561 6.81529ZM78.0548 3.19676C80.1826 2.32063 82.6102 1.87208 85.3541 1.87208V-0.127916C82.3913 -0.127916 79.6989 0.356876 77.2933 1.34741L78.0548 3.19676ZM85.3541 1.87208C87.975 1.87208 90.2149 2.27056 92.0964 3.03802L92.8518 1.18615C90.6799 0.300272 88.1732 -0.127916 85.3541 -0.127916V1.87208ZM92.0964 3.03802C93.9859 3.80875 95.4187 4.86981 96.4409 6.20111L98.0272 4.98306C96.7561 3.32769 95.0156 2.06875 92.8518 1.18615L92.0964 3.03802ZM96.4409 6.20111C97.4486 7.51348 97.9541 9.01762 97.9541 10.7521H99.9541C99.9541 8.59321 99.3129 6.65736 98.0272 4.98306L96.4409 6.20111ZM97.9541 10.7521C97.9541 12.0863 97.6058 13.3191 96.9012 14.4699L98.6069 15.5142C99.5023 14.0517 99.9541 12.4579 99.9541 10.7521H97.9541ZM96.9061 14.4621C96.1947 15.6003 95.032 16.793 93.36 18.0277L94.5481 19.6365C96.3428 18.3112 97.7135 16.9439 98.6021 15.5221L96.9061 14.4621ZM93.36 18.0277C91.6863 19.2636 89.4584 20.5955 86.6601 22.021L87.568 23.8031C90.4231 22.3487 92.7552 20.9605 94.5481 19.6365L93.36 18.0277ZM86.649 22.0268L77.969 26.5868L78.8992 28.3574L87.5792 23.7974L86.649 22.0268ZM79.4139 27.2721L79.0139 25.3121L77.0543 25.712L77.4543 27.672L79.4139 27.2721ZM78.0341 26.5121H99.7941V24.5121H78.0341V26.5121ZM98.7941 25.5121V31.5121H100.794V25.5121H98.7941ZM99.7941 30.5121H70.5141V32.5121H99.7941V30.5121ZM71.5141 31.5121V26.2321H69.5141V31.5121H71.5141ZM71.0122 27.0992L83.8922 19.6992L82.8959 17.965L70.0159 25.365L71.0122 27.0992ZM83.8902 19.7003C85.9567 18.5195 87.5911 17.4996 88.7789 16.6433L87.6093 15.0209C86.5037 15.8179 84.9381 16.798 82.8979 17.9638L83.8902 19.7003ZM88.7822 16.6408C89.9955 15.7584 90.9309 14.8897 91.5061 14.0268L89.842 12.9174C89.4573 13.4945 88.7393 14.1991 87.6059 15.0233L88.7822 16.6408ZM91.5061 14.0268C92.0902 13.1506 92.3941 12.1857 92.3941 11.1521H90.3941C90.3941 11.7718 90.2179 12.3535 89.842 12.9174L91.5061 14.0268ZM92.3941 11.1521C92.3941 10.0977 92.0931 9.13154 91.4856 8.28778L89.8625 9.45639C90.215 9.94596 90.3941 10.4998 90.3941 11.1521H92.3941ZM91.501 8.30977C90.9108 7.44185 90.0379 6.81258 88.9655 6.38361L88.2227 8.24056C89.0169 8.55825 89.5307 8.96898 89.8472 9.43439L91.501 8.30977ZM88.9655 6.38361C87.8765 5.94803 86.5668 5.75208 85.0741 5.75208V7.75208C86.408 7.75208 87.445 7.92947 88.2227 8.24056L88.9655 6.38361ZM85.0741 5.75208C83.3025 5.75208 81.7599 6.01794 80.4936 6.60477L81.3345 8.41939C82.2549 7.9929 83.4857 7.75208 85.0741 7.75208V5.75208ZM80.5121 6.59644C79.278 7.13825 78.2943 7.90619 77.6338 8.92996L79.3144 10.0142C79.7205 9.38465 80.3635 8.84592 81.3161 8.42773L80.5121 6.59644ZM77.6338 8.92996C77.0152 9.88873 76.6431 10.9445 76.5199 12.0846L78.5083 12.2996C78.5984 11.4664 78.8663 10.7088 79.3144 10.0142L77.6338 8.92996ZM77.5141 11.1921H69.9941V13.1921H77.5141V11.1921ZM103.484 11.1121L102.486 11.0418L102.411 12.1121H103.484V11.1121ZM105.484 5.95208L104.694 5.33909L105.484 5.95208ZM110.604 2.27209L110.983 3.19747L110.988 3.19516L110.604 2.27209ZM125.804 1.95208L125.465 2.89297L125.473 2.89567L125.48 2.89825L125.804 1.95208ZM130.524 4.87208L129.778 5.53845L129.785 5.54635L130.524 4.87208ZM130.964 12.9521L130.159 12.3582L130.157 12.3616L130.964 12.9521ZM127.164 15.5921L127.51 16.5303L127.523 16.5254L127.164 15.5921ZM120.524 16.5121H119.524V17.5022L120.514 17.512L120.524 16.5121ZM120.524 15.7121L120.472 14.7134L119.524 14.7628V15.7121H120.524ZM131.124 27.6321L131.894 28.2694L131.9 28.2621L131.124 27.6321ZM126.084 30.9521L126.427 31.8912L126.434 31.8889L126.084 30.9521ZM110.044 30.8721L109.682 31.8044L109.695 31.8093L110.044 30.8721ZM104.724 27.2321L103.942 27.8552L103.947 27.8625L103.953 27.8697L104.724 27.2321ZM102.684 21.7121V20.7121H101.632L101.685 21.7627L102.684 21.7121ZM110.204 21.7121L111.193 21.5681L111.069 20.7121H110.204V21.7121ZM112.444 25.1121L111.914 25.9601L111.924 25.9665L111.934 25.9727L112.444 25.1121ZM123.364 25.2321L123.864 26.098L123.87 26.0945L123.364 25.2321ZM124.604 20.3921L123.819 21.0117L123.827 21.0221L123.836 21.0323L124.604 20.3921ZM122.564 19.2321L122.296 20.1956L122.564 19.2321ZM113.364 18.8321H112.364V19.8321H113.364V18.8321ZM113.364 13.6721V12.6721H112.364V13.6721H113.364ZM123.244 12.7521L123.804 13.5804L123.812 13.5748L123.82 13.5691L123.244 12.7521ZM123.004 7.67208L122.496 8.5335L122.505 8.53899L123.004 7.67208ZM113.164 7.87208L112.644 7.01784L112.635 7.02303L113.164 7.87208ZM111.004 11.1121V12.1121H111.848L111.99 11.2795L111.004 11.1121ZM104.481 11.1823C104.6 9.49293 105.191 7.96056 106.274 6.56508L104.694 5.33909C103.376 7.03695 102.634 8.94457 102.486 11.0418L104.481 11.1823ZM106.274 6.56508C107.345 5.18434 108.896 4.05241 110.983 3.19745L110.225 1.34671C107.885 2.30509 106.022 3.62649 104.694 5.33909L106.274 6.56508ZM110.988 3.19516C113.076 2.32524 115.632 1.87208 118.684 1.87208V-0.127916C115.442 -0.127916 112.611 0.352259 110.219 1.34901L110.988 3.19516ZM118.684 1.87208C121.347 1.87208 123.6 2.22163 125.465 2.89297L126.142 1.0112C124.007 0.242538 121.514 -0.127916 118.684 -0.127916V1.87208ZM125.48 2.89825C127.388 3.55097 128.8 4.44348 129.778 5.53841L131.269 4.20575C130.008 2.79402 128.273 1.73986 126.127 1.00592L125.48 2.89825ZM129.785 5.54635C130.735 6.58644 131.204 7.79844 131.204 9.23208H133.204C133.204 7.30573 132.553 5.61106 131.262 4.19781L129.785 5.54635ZM131.204 9.23208C131.204 10.373 130.862 11.4059 130.159 12.3582L131.768 13.5459C132.719 12.2583 133.204 10.8112 133.204 9.23208H131.204ZM130.157 12.3616C129.505 13.2525 128.423 14.0363 126.805 14.6587L127.523 16.5254C129.371 15.8146 130.823 14.8383 131.771 13.5426L130.157 12.3616ZM126.817 14.654C125.238 15.2373 123.156 15.5381 120.534 15.5121L120.514 17.512C123.278 17.5394 125.623 17.2268 127.51 16.5302L126.817 14.654ZM121.524 16.5121V15.7121H119.524V16.5121H121.524ZM120.576 16.7107C123.063 16.5812 125.15 16.7659 126.858 17.2362L127.389 15.308C125.417 14.765 123.104 14.5763 120.472 14.7134L120.576 16.7107ZM126.858 17.2362C128.568 17.707 129.795 18.4265 130.621 19.342L132.106 18.0021C130.959 16.731 129.359 15.8505 127.389 15.308L126.858 17.2362ZM130.621 19.342C131.422 20.2288 131.844 21.3536 131.844 22.7921H133.844C133.844 20.9239 133.279 19.3021 132.106 18.0021L130.621 19.342ZM131.844 22.7921C131.844 24.3751 131.35 25.7662 130.347 27.002L131.9 28.2621C133.191 26.6713 133.844 24.8358 133.844 22.7921H131.844ZM130.353 26.9948C129.348 28.2107 127.833 29.2313 125.734 30.0153L126.434 31.8889C128.761 31.0196 130.606 29.8268 131.894 28.2693L130.353 26.9948ZM125.74 30.013C123.695 30.7613 121.152 31.1521 118.084 31.1521V33.1521C121.309 33.1521 124.099 32.7429 126.427 31.8912L125.74 30.013ZM118.084 31.1521C115.107 31.1521 112.55 30.7377 110.393 29.9349L109.695 31.8093C112.124 32.7132 114.927 33.1521 118.084 33.1521V31.1521ZM110.406 29.9399C108.265 29.1087 106.645 27.9846 105.494 26.5945L103.953 27.8697C105.363 29.5729 107.29 30.8755 109.682 31.8043L110.406 29.9399ZM105.506 26.609C104.389 25.2074 103.779 23.5702 103.682 21.6615L101.685 21.7627C101.802 24.0673 102.551 26.1101 103.942 27.8552L105.506 26.609ZM102.684 22.7121H110.204V20.7121H102.684V22.7121ZM109.214 21.856C109.471 23.6196 110.39 25.0076 111.914 25.9601L112.974 24.2641C111.938 23.6165 111.363 22.7379 111.193 21.5681L109.214 21.856ZM111.934 25.9727C113.463 26.8772 115.551 27.2721 118.084 27.2721V25.2721C115.71 25.2721 114.038 24.8936 112.953 24.2515L111.934 25.9727ZM118.084 27.2721C120.475 27.2721 122.442 26.9199 123.864 26.0979L122.863 24.3662C121.886 24.931 120.333 25.2721 118.084 25.2721V27.2721ZM123.87 26.0945C125.362 25.219 126.204 23.9119 126.204 22.2321H124.204C124.204 23.1123 123.819 23.8052 122.858 24.3697L123.87 26.0945ZM126.204 22.2321C126.204 21.2991 125.95 20.4451 125.372 19.7519L123.836 21.0323C124.058 21.2991 124.204 21.6717 124.204 22.2321H126.204ZM125.389 19.7724C124.803 19.0307 123.892 18.5631 122.831 18.2686L122.296 20.1956C123.156 20.4344 123.604 20.7402 123.819 21.0117L125.389 19.7724ZM122.831 18.2686C121.744 17.9665 120.306 17.8321 118.564 17.8321V19.8321C120.234 19.8321 121.464 19.9643 122.296 20.1956L122.831 18.2686ZM118.564 17.8321H113.364V19.8321H118.564V17.8321ZM114.364 18.8321V13.6721H112.364V18.8321H114.364ZM113.364 14.6721H118.564V12.6721H113.364V14.6721ZM118.564 14.6721C120.809 14.6721 122.633 14.3726 123.804 13.5804L122.683 11.9238C122.041 12.3583 120.745 12.6721 118.564 12.6721V14.6721ZM123.82 13.5691C124.963 12.7625 125.604 11.6449 125.604 10.2721H123.604C123.604 10.926 123.338 11.4616 122.667 11.9351L123.82 13.5691ZM125.604 10.2721C125.604 8.75332 124.842 7.57556 123.502 6.80518L122.505 8.53899C123.299 8.99528 123.604 9.55085 123.604 10.2721H125.604ZM123.512 6.81072C122.242 6.0618 120.453 5.75208 118.284 5.75208V7.75208C120.328 7.75208 121.686 8.05571 122.496 8.53345L123.512 6.81072ZM118.284 5.75208C116.002 5.75208 114.089 6.13842 112.644 7.01789L113.684 8.72628C114.692 8.11242 116.192 7.75208 118.284 7.75208V5.75208ZM112.635 7.02303C111.188 7.9234 110.305 9.25373 110.018 10.9447L111.99 11.2795C112.183 10.1438 112.739 9.3141 113.692 8.72114L112.635 7.02303ZM111.004 10.1121H103.484V12.1121H111.004V10.1121Z" fill="currentColor" mask="url(#path-1-outside-1_1_1410)"/>
</svg>
