<svg width="361" height="33" viewBox="0 0 361 33" fill="none" xmlns="http://www.w3.org/2000/svg">
<mask id="path-1-outside-1_1_1411" maskUnits="userSpaceOnUse" x="-1.0553" y="-0.487915" width="364" height="34" fill="black">
<rect fill="white" x="-1.0553" y="-0.487915" width="364" height="34"/>
<path d="M21.6647 16.7921L22.3047 15.3121C24.6514 15.3654 26.5714 15.7254 28.0647 16.3921C29.5847 17.0588 30.7047 17.9788 31.4247 19.1521C32.1714 20.2988 32.5447 21.6321 32.5447 23.1521C32.5447 24.7521 32.1714 26.1921 31.4247 27.4721C30.678 28.7254 29.558 29.7121 28.0647 30.4321C26.598 31.1521 24.758 31.5121 22.5447 31.5121H0.944702L3.2647 16.1121L0.944702 1.51208H21.7847C24.558 1.51208 26.7047 2.16542 28.2247 3.47208C29.7714 4.75208 30.5447 6.52542 30.5447 8.79208C30.5447 10.0454 30.2514 11.2454 29.6647 12.3921C29.078 13.5388 28.1447 14.5121 26.8647 15.3121C25.5847 16.0854 23.8514 16.5788 21.6647 16.7921ZM8.3847 29.6721L5.5047 26.1121H20.7447C22.0514 26.1121 23.0647 25.8054 23.7847 25.1921C24.5314 24.5521 24.9047 23.6588 24.9047 22.5121C24.9047 21.3654 24.4914 20.4588 23.6647 19.7921C22.8647 19.0988 21.6647 18.7521 20.0647 18.7521H7.5847V13.4721H19.1047C20.198 13.4721 21.1047 13.1654 21.8247 12.5521C22.5447 11.9121 22.9047 11.0454 22.9047 9.95208C22.9047 9.07208 22.598 8.35208 21.9847 7.79208C21.3714 7.20542 20.478 6.91208 19.3047 6.91208H5.5447L8.3847 3.35208L10.5047 16.1121L8.3847 29.6721ZM44.3856 1.51208V28.1521L40.9856 24.8321H63.4656V31.5121H36.8256V1.51208H44.3856ZM72.4991 25.4721V19.3921H93.2191V25.4721H72.4991ZM87.9391 1.51208L101.779 31.5121H93.7391L81.8591 4.67208H84.1791L72.3391 31.5121H64.2991L78.1391 1.51208H87.9391ZM135.996 19.1121C135.702 21.6988 134.809 23.9788 133.316 25.9521C131.822 27.8988 129.849 29.4188 127.396 30.5121C124.942 31.6054 122.142 32.1521 118.996 32.1521C115.556 32.1521 112.529 31.4988 109.916 30.1921C107.329 28.8854 105.316 27.0588 103.876 24.7121C102.436 22.3654 101.716 19.6321 101.716 16.5121C101.716 13.3921 102.436 10.6588 103.876 8.31208C105.316 5.96542 107.329 4.13875 109.916 2.83208C112.529 1.52542 115.556 0.872084 118.996 0.872084C122.142 0.872084 124.942 1.41875 127.396 2.51208C129.849 3.60542 131.822 5.12542 133.316 7.07208C134.809 9.01875 135.702 11.2988 135.996 13.9121H128.396C128.129 12.5521 127.582 11.3921 126.756 10.4321C125.956 9.47208 124.889 8.73875 123.556 8.23208C122.249 7.69875 120.729 7.43208 118.996 7.43208C116.996 7.43208 115.276 7.80542 113.836 8.55208C112.396 9.27208 111.289 10.3121 110.516 11.6721C109.742 13.0321 109.356 14.6454 109.356 16.5121C109.356 18.3788 109.742 19.9921 110.516 21.3521C111.289 22.7121 112.396 23.7654 113.836 24.5121C115.276 25.2321 116.996 25.5921 118.996 25.5921C120.729 25.5921 122.249 25.3388 123.556 24.8321C124.889 24.3254 125.956 23.5921 126.756 22.6321C127.582 21.6721 128.129 20.4988 128.396 19.1121H135.996ZM140.224 31.5121V1.51208H147.744V25.4721L145.704 23.9121L163.464 1.51208H171.464L147.024 31.5121H140.224ZM154.584 16.9921L160.024 12.3121L171.864 31.5121H163.304L154.584 16.9921ZM187.693 13.9921H209.413V20.4321H187.693V13.9921ZM210.133 1.51208V7.95208H187.853L191.573 4.23208V31.5121H184.013V1.51208H210.133ZM219.761 14.7121H231.001C232.414 14.7121 233.534 14.3921 234.361 13.7521C235.188 13.0854 235.601 12.1654 235.601 10.9921C235.601 9.81875 235.188 8.91208 234.361 8.27208C233.534 7.60542 232.414 7.27208 231.001 7.27208H218.681L222.081 3.55208V31.5121H214.521V1.51208H232.001C234.241 1.51208 236.201 1.91208 237.881 2.71208C239.561 3.51208 240.868 4.61875 241.801 6.03208C242.734 7.44542 243.201 9.09875 243.201 10.9921C243.201 12.8588 242.734 14.4988 241.801 15.9121C240.868 17.3254 239.561 18.4321 237.881 19.2321C236.201 20.0054 234.241 20.3921 232.001 20.3921H219.761V14.7121ZM224.601 17.4721H233.121L244.161 31.5121H235.401L224.601 17.4721ZM248.115 1.51208H255.675V31.5121H248.115V1.51208ZM276.153 1.51208C279.673 1.51208 282.753 2.13875 285.393 3.39208C288.033 4.64542 290.086 6.39208 291.553 8.63208C293.046 10.8721 293.793 13.4988 293.793 16.5121C293.793 19.4988 293.046 22.1254 291.553 24.3921C290.086 26.6321 288.033 28.3788 285.393 29.6321C282.753 30.8854 279.673 31.5121 276.153 31.5121H261.513V1.51208H276.153ZM269.033 28.4321L265.353 24.8321H276.713C278.633 24.8321 280.3 24.4854 281.713 23.7921C283.126 23.0988 284.22 22.1388 284.993 20.9121C285.766 19.6588 286.153 18.1921 286.153 16.5121C286.153 14.8054 285.766 13.3388 284.993 12.1121C284.22 10.8854 283.126 9.92542 281.713 9.23208C280.3 8.53875 278.633 8.19208 276.713 8.19208H265.353L269.033 4.59208V28.4321ZM301.796 25.4721V19.3921H322.516V25.4721H301.796ZM317.236 1.51208L331.076 31.5121H323.036L311.156 4.67208H313.476L301.636 31.5121H293.596L307.436 1.51208H317.236ZM339.322 31.5121V16.9921H346.882V31.5121H339.322ZM325.242 1.51208H333.602L344.802 15.7521H341.322L352.522 1.51208H360.882L345.522 21.0321L340.642 21.1121L325.242 1.51208Z"/>
</mask>
<path d="M21.6647 16.7921L20.7468 16.3952L20.0736 17.9521L21.7618 17.7874L21.6647 16.7921ZM22.3047 15.3121L22.3274 14.3123L21.6541 14.297L21.3868 14.9152L22.3047 15.3121ZM28.0647 16.3921L27.657 17.3052L27.663 17.3079L28.0647 16.3921ZM31.4247 19.1521L30.5724 19.6751L30.5794 19.6865L30.5867 19.6978L31.4247 19.1521ZM31.4247 27.4721L32.2838 27.9839L32.2885 27.976L31.4247 27.4721ZM28.0647 30.4321L27.6304 29.5313L27.624 29.5344L28.0647 30.4321ZM0.944702 31.5121L-0.0441397 31.3631L-0.217231 32.5121H0.944702V31.5121ZM3.2647 16.1121L4.25354 16.2611L4.2766 16.108L4.25231 15.9551L3.2647 16.1121ZM0.944702 1.51208V0.512083H-0.226748L-0.0429068 1.66902L0.944702 1.51208ZM28.2247 3.47208L27.5728 4.2304L27.5799 4.23651L27.5871 4.24248L28.2247 3.47208ZM29.6647 12.3921L28.7745 11.9366L29.6647 12.3921ZM26.8647 15.3121L27.3818 16.168L27.3883 16.1641L27.3947 16.1601L26.8647 15.3121ZM8.3847 29.6721L7.60725 30.301L9.02461 32.053L9.3727 29.8265L8.3847 29.6721ZM5.5047 26.1121V25.1121H3.40945L4.72725 26.741L5.5047 26.1121ZM23.7847 25.1921L24.4332 25.9533L24.4355 25.9513L23.7847 25.1921ZM23.6647 19.7921L23.0098 20.5478L23.0232 20.5594L23.037 20.5705L23.6647 19.7921ZM7.5847 18.7521H6.5847V19.7521H7.5847V18.7521ZM7.5847 13.4721V12.4721H6.5847V13.4721H7.5847ZM21.8247 12.5521L22.4732 13.3133L22.4812 13.3065L22.4891 13.2995L21.8247 12.5521ZM21.9847 7.79208L21.2935 8.51472L21.3019 8.52275L21.3104 8.53057L21.9847 7.79208ZM5.5447 6.91208L4.76298 6.28846L3.46773 7.91208H5.5447V6.91208ZM8.3847 3.35208L9.37118 3.18819L9.00319 0.973269L7.60298 2.72846L8.3847 3.35208ZM10.5047 16.1121L11.4927 16.2666L11.5176 16.1072L11.4912 15.9482L10.5047 16.1121ZM22.5826 17.189L23.2226 15.709L21.3868 14.9152L20.7468 16.3952L22.5826 17.189ZM22.282 16.3118C24.5491 16.3634 26.3257 16.7108 27.6571 17.3052L28.4724 15.4789C26.8171 14.74 24.7536 14.3675 22.3274 14.3123L22.282 16.3118ZM27.663 17.3079C29.0354 17.9098 29.9794 18.7087 30.5724 19.6751L32.277 18.6291C31.43 17.2488 30.134 16.2077 28.4664 15.4763L27.663 17.3079ZM30.5867 19.6978C31.2161 20.6644 31.5447 21.8036 31.5447 23.1521H33.5447C33.5447 21.4606 33.1266 19.9331 32.2627 18.6064L30.5867 19.6978ZM31.5447 23.1521C31.5447 24.5896 31.2113 25.8533 30.5609 26.9682L32.2885 27.976C33.1314 26.5309 33.5447 24.9146 33.5447 23.1521H31.5447ZM30.5656 26.9603C29.9326 28.0229 28.9719 28.8845 27.6304 29.5313L28.499 31.3329C30.1442 30.5396 31.4235 29.428 32.2838 27.9839L30.5656 26.9603ZM27.624 29.5344C26.3342 30.1676 24.6567 30.5121 22.5447 30.5121V32.5121C24.8594 32.5121 26.8618 32.1366 28.5054 31.3298L27.624 29.5344ZM22.5447 30.5121H0.944702V32.5121H22.5447V30.5121ZM1.93354 31.6611L4.25354 16.2611L2.27586 15.9631L-0.0441397 31.3631L1.93354 31.6611ZM4.25231 15.9551L1.93231 1.35515L-0.0429068 1.66902L2.27709 16.269L4.25231 15.9551ZM0.944702 2.51208H21.7847V0.512083H0.944702V2.51208ZM21.7847 2.51208C24.4103 2.51208 26.2933 3.13044 27.5728 4.2304L28.8766 2.71377C27.1161 1.20039 24.7057 0.512083 21.7847 0.512083V2.51208ZM27.5871 4.24248C28.8729 5.30654 29.5447 6.78012 29.5447 8.79208H31.5447C31.5447 6.27071 30.6699 4.19763 28.8623 2.70169L27.5871 4.24248ZM29.5447 8.79208C29.5447 9.88256 29.2911 10.9269 28.7745 11.9366L30.555 12.8476C31.2117 11.5639 31.5447 10.2083 31.5447 8.79208H29.5447ZM28.7745 11.9366C28.2834 12.8964 27.488 13.7433 26.3347 14.4641L27.3947 16.1601C28.8014 15.2809 29.8727 14.1811 30.555 12.8476L28.7745 11.9366ZM26.3476 14.4562C25.241 15.1247 23.6698 15.5917 21.5676 15.7968L21.7618 17.7874C24.033 17.5658 25.9284 17.0461 27.3818 16.168L26.3476 14.4562ZM9.16215 29.0431L6.28215 25.4831L4.72725 26.741L7.60725 30.301L9.16215 29.0431ZM5.5047 27.1121H20.7447V25.1121H5.5047V27.1121ZM20.7447 27.1121C22.1987 27.1121 23.4737 26.7707 24.4332 25.9533L23.1362 24.4308C22.6557 24.8402 21.9041 25.1121 20.7447 25.1121V27.1121ZM24.4355 25.9513C25.4416 25.089 25.9047 23.897 25.9047 22.5121H23.9047C23.9047 23.4205 23.6212 24.0152 23.1339 24.4328L24.4355 25.9513ZM25.9047 22.5121C25.9047 21.0906 25.3752 19.8869 24.2925 19.0137L23.037 20.5705C23.6075 21.0306 23.9047 21.6402 23.9047 22.5121H25.9047ZM24.3196 19.0364C23.2646 18.1221 21.7866 17.7521 20.0647 17.7521V19.7521C21.5429 19.7521 22.4648 20.0754 23.0098 20.5478L24.3196 19.0364ZM20.0647 17.7521H7.5847V19.7521H20.0647V17.7521ZM8.5847 18.7521V13.4721H6.5847V18.7521H8.5847ZM7.5847 14.4721H19.1047V12.4721H7.5847V14.4721ZM19.1047 14.4721C20.3965 14.4721 21.5445 14.1044 22.4732 13.3133L21.1762 11.7908C20.6649 12.2264 19.9996 12.4721 19.1047 12.4721V14.4721ZM22.4891 13.2995C23.4526 12.443 23.9047 11.2883 23.9047 9.95208H21.9047C21.9047 10.8026 21.6368 11.3811 21.1603 11.8047L22.4891 13.2995ZM23.9047 9.95208C23.9047 8.80995 23.4933 7.81542 22.659 7.0536L21.3104 8.53057C21.7027 8.88875 21.9047 9.33422 21.9047 9.95208H23.9047ZM22.6759 7.06944C21.8151 6.24605 20.6358 5.91208 19.3047 5.91208V7.91208C20.3203 7.91208 20.9276 8.16478 21.2935 8.51472L22.6759 7.06944ZM19.3047 5.91208H5.5447V7.91208H19.3047V5.91208ZM6.32643 7.53571L9.16643 3.97571L7.60298 2.72846L4.76298 6.28846L6.32643 7.53571ZM7.39823 3.51598L9.51822 16.276L11.4912 15.9482L9.37118 3.18819L7.39823 3.51598ZM9.5167 15.9576L7.3967 29.5176L9.3727 29.8265L11.4927 16.2666L9.5167 15.9576ZM44.3856 1.51208H45.3856V0.512083H44.3856V1.51208ZM44.3856 28.1521L43.687 28.8676L45.3856 30.5262V28.1521H44.3856ZM40.9856 24.8321V23.8321H38.5302L40.287 25.5476L40.9856 24.8321ZM63.4656 24.8321H64.4656V23.8321H63.4656V24.8321ZM63.4656 31.5121V32.5121H64.4656V31.5121H63.4656ZM36.8256 31.5121H35.8256V32.5121H36.8256V31.5121ZM36.8256 1.51208V0.512083H35.8256V1.51208H36.8256ZM43.3856 1.51208V28.1521H45.3856V1.51208H43.3856ZM45.0843 27.4366L41.6843 24.1166L40.287 25.5476L43.687 28.8676L45.0843 27.4366ZM40.9856 25.8321H63.4656V23.8321H40.9856V25.8321ZM62.4656 24.8321V31.5121H64.4656V24.8321H62.4656ZM63.4656 30.5121H36.8256V32.5121H63.4656V30.5121ZM37.8256 31.5121V1.51208H35.8256V31.5121H37.8256ZM36.8256 2.51208H44.3856V0.512083H36.8256V2.51208ZM72.4991 25.4721H71.4991V26.4721H72.4991V25.4721ZM72.4991 19.3921V18.3921H71.4991V19.3921H72.4991ZM93.2191 19.3921H94.2191V18.3921H93.2191V19.3921ZM93.2191 25.4721V26.4721H94.2191V25.4721H93.2191ZM87.9391 1.51208L88.8471 1.09318L88.579 0.512083H87.9391V1.51208ZM101.779 31.5121V32.5121H103.342L102.687 31.0932L101.779 31.5121ZM93.7391 31.5121L92.8246 31.9168L93.0881 32.5121H93.7391V31.5121ZM81.8591 4.67208V3.67208H80.3229L80.9446 5.07683L81.8591 4.67208ZM84.1791 4.67208L85.094 5.07569L85.7132 3.67208H84.1791V4.67208ZM72.3391 31.5121V32.5121H72.9909L73.254 31.9157L72.3391 31.5121ZM64.2991 31.5121L63.391 31.0932L62.7365 32.5121H64.2991V31.5121ZM78.1391 1.51208V0.512083H77.4991L77.231 1.09318L78.1391 1.51208ZM73.4991 25.4721V19.3921H71.4991V25.4721H73.4991ZM72.4991 20.3921H93.2191V18.3921H72.4991V20.3921ZM92.2191 19.3921V25.4721H94.2191V19.3921H92.2191ZM93.2191 24.4721H72.4991V26.4721H93.2191V24.4721ZM87.0311 1.93099L100.871 31.931L102.687 31.0932L88.8471 1.09318L87.0311 1.93099ZM101.779 30.5121H93.7391V32.5121H101.779V30.5121ZM94.6535 31.1073L82.7735 4.26734L80.9446 5.07683L92.8246 31.9168L94.6535 31.1073ZM81.8591 5.67208H84.1791V3.67208H81.8591V5.67208ZM83.2641 4.26848L71.4241 31.1085L73.254 31.9157L85.094 5.07569L83.2641 4.26848ZM72.3391 30.5121H64.2991V32.5121H72.3391V30.5121ZM65.2071 31.931L79.0471 1.93099L77.231 1.09318L63.391 31.0932L65.2071 31.931ZM78.1391 2.51208H87.9391V0.512083H78.1391V2.51208ZM135.996 19.1121L136.989 19.2248L137.115 18.1121H135.996V19.1121ZM133.316 25.9521L134.109 26.5608L134.113 26.5555L133.316 25.9521ZM127.396 30.5121L126.989 29.5987L127.396 30.5121ZM109.916 30.1921L109.465 31.0847L109.468 31.0865L109.916 30.1921ZM103.876 24.7121L103.023 25.2351L103.876 24.7121ZM103.876 8.31208L103.023 7.78907L103.876 8.31208ZM109.916 2.83208L109.468 1.93765L109.465 1.93951L109.916 2.83208ZM133.316 7.07208L132.522 7.68074V7.68075L133.316 7.07208ZM135.996 13.9121V14.9121H137.114L136.989 13.8005L135.996 13.9121ZM128.396 13.9121L127.414 14.1045L127.573 14.9121H128.396V13.9121ZM126.756 10.4321L125.987 11.0723L125.993 11.0785L125.998 11.0846L126.756 10.4321ZM123.556 8.23208L123.178 9.15793L123.189 9.16254L123.2 9.16687L123.556 8.23208ZM113.836 8.55209L114.283 9.44651L114.289 9.44322L114.296 9.43984L113.836 8.55209ZM110.516 11.6721L111.385 12.1664L110.516 11.6721ZM110.516 21.3521L109.646 21.8464V21.8464L110.516 21.3521ZM113.836 24.5121L113.375 25.3998L113.382 25.4032L113.388 25.4065L113.836 24.5121ZM123.556 24.8321L123.2 23.8973L123.194 23.8997L123.556 24.8321ZM126.756 22.6321L125.998 21.9796L125.993 21.9857L125.987 21.9919L126.756 22.6321ZM128.396 19.1121V18.1121H127.57L127.414 18.9232L128.396 19.1121ZM135.002 18.9994C134.728 21.4175 133.898 23.5259 132.518 25.3486L134.113 26.5555C135.72 24.4316 136.677 21.98 136.989 19.2248L135.002 18.9994ZM132.522 25.3434C131.14 27.1457 129.305 28.5666 126.989 29.5987L127.803 31.4255C130.393 30.2709 132.505 28.6518 134.109 26.5607L132.522 25.3434ZM126.989 29.5987C124.683 30.626 122.026 31.1521 118.996 31.1521V33.1521C122.259 33.1521 125.201 32.5849 127.803 31.4255L126.989 29.5987ZM118.996 31.1521C115.683 31.1521 112.815 30.5236 110.363 29.2977L109.468 31.0865C112.243 32.4739 115.428 33.1521 118.996 33.1521V31.1521ZM110.367 29.2995C107.936 28.0718 106.066 26.3693 104.728 24.1891L103.023 25.2351C104.565 27.7483 106.722 29.699 109.465 31.0847L110.367 29.2995ZM104.728 24.1891C103.397 22.0199 102.716 19.4726 102.716 16.5121H100.716C100.716 19.7915 101.474 22.7109 103.023 25.2351L104.728 24.1891ZM102.716 16.5121C102.716 13.5515 103.397 11.0042 104.728 8.8351L103.023 7.78907C101.474 10.3133 100.716 13.2326 100.716 16.5121H102.716ZM104.728 8.8351C106.066 6.65492 107.936 4.95233 110.367 3.72466L109.465 1.93951C106.722 3.32517 104.565 5.27592 103.023 7.78907L104.728 8.8351ZM110.363 3.72651C112.815 2.50057 115.683 1.87208 118.996 1.87208V-0.127916C115.428 -0.127916 112.243 0.550263 109.468 1.93766L110.363 3.72651ZM118.996 1.87208C122.026 1.87208 124.683 2.3982 126.989 3.42549L127.803 1.59868C125.201 0.4393 122.259 -0.127916 118.996 -0.127916V1.87208ZM126.989 3.42549C129.305 4.45758 131.14 5.8785 132.522 7.68074L134.109 6.46343C132.505 4.37233 130.393 2.75325 127.803 1.59868L126.989 3.42549ZM132.522 7.68075C133.897 9.47261 134.727 11.5776 135.002 14.0236L136.989 13.8005C136.677 11.0199 135.721 8.56489 134.109 6.46342L132.522 7.68075ZM135.996 12.9121H128.396V14.9121H135.996V12.9121ZM129.377 13.7197C129.08 12.2059 128.464 10.8831 127.513 9.77956L125.998 11.0846C126.701 11.9011 127.178 12.8982 127.414 14.1045L129.377 13.7197ZM127.524 9.7919C126.599 8.6821 125.382 7.85628 123.911 7.2973L123.2 9.16687C124.396 9.62123 125.312 10.2621 125.987 11.0723L127.524 9.7919ZM123.934 7.30624C122.483 6.71415 120.83 6.43208 118.996 6.43208V8.43208C120.628 8.43208 122.015 8.68335 123.178 9.15793L123.934 7.30624ZM118.996 6.43208C116.872 6.43208 114.987 6.82868 113.375 7.66433L114.296 9.43984C115.564 8.78215 117.119 8.43208 118.996 8.43208V6.43208ZM113.388 7.65766C111.777 8.46354 110.521 9.6403 109.646 11.1778L111.385 12.1664C112.057 10.9839 113.015 10.0806 114.283 9.44651L113.388 7.65766ZM109.646 11.1778C108.772 12.7151 108.356 14.5056 108.356 16.5121H110.356C110.356 14.7852 110.712 13.349 111.385 12.1664L109.646 11.1778ZM108.356 16.5121C108.356 18.5185 108.772 20.309 109.646 21.8464L111.385 20.8578C110.712 19.6751 110.356 18.239 110.356 16.5121H108.356ZM109.646 21.8464C110.519 23.3807 111.771 24.5677 113.375 25.3998L114.296 23.6243C113.021 22.9631 112.059 22.0435 111.385 20.8578L109.646 21.8464ZM113.388 25.4065C114.997 26.2107 116.877 26.5921 118.996 26.5921V24.5921C117.114 24.5921 115.554 24.2535 114.283 23.6177L113.388 25.4065ZM118.996 26.5921C120.824 26.5921 122.471 26.325 123.917 25.7644L123.194 23.8997C122.026 24.3525 120.634 24.5921 118.996 24.5921V26.5921ZM123.911 25.7669C125.382 25.2079 126.599 24.3821 127.524 23.2723L125.987 21.9919C125.312 22.8021 124.396 23.4429 123.2 23.8973L123.911 25.7669ZM127.513 23.2846C128.467 22.1776 129.082 20.839 129.378 19.3009L127.414 18.9232C127.176 20.1585 126.698 21.1666 125.998 21.9796L127.513 23.2846ZM128.396 20.1121H135.996V18.1121H128.396V20.1121ZM140.224 31.5121H139.224V32.5121H140.224V31.5121ZM140.224 1.51208V0.512083H139.224V1.51208H140.224ZM147.744 1.51208H148.744V0.512083H147.744V1.51208ZM147.744 25.4721L147.137 26.2664L148.744 27.4957V25.4721H147.744ZM145.704 23.9121L144.92 23.2908L144.288 24.0883L145.097 24.7064L145.704 23.9121ZM163.464 1.51208V0.512083H162.981L162.68 0.890806L163.464 1.51208ZM171.464 1.51208L172.239 2.14369L173.569 0.512083H171.464V1.51208ZM147.024 31.5121V32.5121H147.499L147.799 32.1437L147.024 31.5121ZM154.584 16.9921L153.932 16.234L153.293 16.784L153.727 17.5069L154.584 16.9921ZM160.024 12.3121L160.875 11.7872L160.26 10.7898L159.372 11.554L160.024 12.3121ZM171.864 31.5121V32.5121H173.656L172.715 30.9872L171.864 31.5121ZM163.304 31.5121L162.447 32.0269L162.738 32.5121H163.304V31.5121ZM141.224 31.5121V1.51208H139.224V31.5121H141.224ZM140.224 2.51208H147.744V0.512083H140.224V2.51208ZM146.744 1.51208V25.4721H148.744V1.51208H146.744ZM148.352 24.6777L146.312 23.1177L145.097 24.7064L147.137 26.2664L148.352 24.6777ZM146.488 24.5334L164.248 2.13336L162.68 0.890806L144.92 23.2908L146.488 24.5334ZM163.464 2.51208H171.464V0.512083H163.464V2.51208ZM170.689 0.880479L146.249 30.8805L147.799 32.1437L172.239 2.14369L170.689 0.880479ZM147.024 30.5121H140.224V32.5121H147.024V30.5121ZM155.236 17.7502L160.676 13.0702L159.372 11.554L153.932 16.234L155.236 17.7502ZM159.173 12.837L171.013 32.037L172.715 30.9872L160.875 11.7872L159.173 12.837ZM171.864 30.5121H163.304V32.5121H171.864V30.5121ZM164.161 30.9972L155.441 16.4772L153.727 17.5069L162.447 32.0269L164.161 30.9972ZM187.693 13.9921V12.9921H186.693V13.9921H187.693ZM209.413 13.9921H210.413V12.9921H209.413V13.9921ZM209.413 20.4321V21.4321H210.413V20.4321H209.413ZM187.693 20.4321H186.693V21.4321H187.693V20.4321ZM210.133 1.51208H211.133V0.512083H210.133V1.51208ZM210.133 7.95208V8.95208H211.133V7.95208H210.133ZM187.853 7.95208L187.146 7.24498L185.439 8.95208H187.853V7.95208ZM191.573 4.23208H192.573V1.81787L190.866 3.52498L191.573 4.23208ZM191.573 31.5121V32.5121H192.573V31.5121H191.573ZM184.013 31.5121H183.013V32.5121H184.013V31.5121ZM184.013 1.51208V0.512083H183.013V1.51208H184.013ZM187.693 14.9921H209.413V12.9921H187.693V14.9921ZM208.413 13.9921V20.4321H210.413V13.9921H208.413ZM209.413 19.4321H187.693V21.4321H209.413V19.4321ZM188.693 20.4321V13.9921H186.693V20.4321H188.693ZM209.133 1.51208V7.95208H211.133V1.51208H209.133ZM210.133 6.95208H187.853V8.95208H210.133V6.95208ZM188.56 8.65919L192.28 4.93919L190.866 3.52498L187.146 7.24498L188.56 8.65919ZM190.573 4.23208V31.5121H192.573V4.23208H190.573ZM191.573 30.5121H184.013V32.5121H191.573V30.5121ZM185.013 31.5121V1.51208H183.013V31.5121H185.013ZM184.013 2.51208H210.133V0.512083H184.013V2.51208ZM219.761 14.7121V13.7121H218.761V14.7121H219.761ZM234.361 13.7521L234.973 14.5428L234.981 14.5367L234.989 14.5305L234.361 13.7521ZM234.361 8.27208L233.733 9.0505L233.741 9.05673L233.749 9.06281L234.361 8.27208ZM218.681 7.27209L217.943 6.59744L216.412 8.27209H218.681V7.27209ZM222.081 3.55208H223.081V0.975705L221.343 2.87744L222.081 3.55208ZM222.081 31.5121V32.5121H223.081V31.5121H222.081ZM214.521 31.5121H213.521V32.5121H214.521V31.5121ZM214.521 1.51208V0.512083H213.521V1.51208H214.521ZM237.881 2.71208L237.451 3.61494L237.881 2.71208ZM241.801 6.03208L242.635 5.48102L241.801 6.03208ZM241.801 15.9121L242.635 16.4631L241.801 15.9121ZM237.881 19.2321L238.299 20.1405L238.311 20.1349L237.881 19.2321ZM219.761 20.3921H218.761V21.3921H219.761V20.3921ZM224.601 17.4721V16.4721H222.57L223.808 18.0818L224.601 17.4721ZM233.121 17.4721L233.907 16.854L233.607 16.4721H233.121V17.4721ZM244.161 31.5121V32.5121H246.219L244.947 30.894L244.161 31.5121ZM235.401 31.5121L234.608 32.1218L234.909 32.5121H235.401V31.5121ZM219.761 15.7121H231.001V13.7121H219.761V15.7121ZM231.001 15.7121C232.559 15.7121 233.919 15.3592 234.973 14.5428L233.749 12.9614C233.15 13.4249 232.27 13.7121 231.001 13.7121V15.7121ZM234.989 14.5305C236.077 13.6524 236.601 12.4318 236.601 10.9921H234.601C234.601 11.8991 234.298 12.5184 233.733 12.9737L234.989 14.5305ZM236.601 10.9921C236.601 9.55255 236.077 8.3357 234.973 7.48136L233.749 9.06281C234.299 9.48847 234.601 10.085 234.601 10.9921H236.601ZM234.989 7.49367C233.933 6.64235 232.567 6.27209 231.001 6.27209V8.27209C232.262 8.27209 233.136 8.56849 233.733 9.0505L234.989 7.49367ZM231.001 6.27209H218.681V8.27209H231.001V6.27209ZM219.419 7.94673L222.819 4.22673L221.343 2.87744L217.943 6.59744L219.419 7.94673ZM221.081 3.55208V31.5121H223.081V3.55208H221.081ZM222.081 30.5121H214.521V32.5121H222.081V30.5121ZM215.521 31.5121V1.51208H213.521V31.5121H215.521ZM214.521 2.51208H232.001V0.512083H214.521V2.51208ZM232.001 2.51208C234.122 2.51208 235.93 2.89061 237.451 3.61494L238.311 1.80922C236.472 0.933559 234.36 0.512083 232.001 0.512083V2.51208ZM237.451 3.61494C238.983 4.34464 240.143 5.33646 240.966 6.58315L242.635 5.48102C241.592 3.90104 240.139 2.67952 238.311 1.80922L237.451 3.61494ZM240.966 6.58315C241.779 7.8141 242.201 9.27077 242.201 10.9921H244.201C244.201 8.92673 243.689 7.07674 242.635 5.48102L240.966 6.58315ZM242.201 10.9921C242.201 12.6836 241.781 14.1277 240.966 15.361L242.635 16.4631C243.688 14.8698 244.201 13.0339 244.201 10.9921H242.201ZM240.966 15.361C240.143 16.6077 238.983 17.5995 237.451 18.3292L238.311 20.1349C240.139 19.2646 241.592 18.0431 242.635 16.4631L240.966 15.361ZM237.463 18.3237C235.939 19.0253 234.127 19.3921 232.001 19.3921V21.3921C234.355 21.3921 236.463 20.9855 238.299 20.1405L237.463 18.3237ZM232.001 19.3921H219.761V21.3921H232.001V19.3921ZM220.761 20.3921V14.7121H218.761V20.3921H220.761ZM224.601 18.4721H233.121V16.4721H224.601V18.4721ZM232.335 18.0902L243.375 32.1302L244.947 30.894L233.907 16.854L232.335 18.0902ZM244.161 30.5121H235.401V32.5121H244.161V30.5121ZM236.194 30.9024L225.394 16.8624L223.808 18.0818L234.608 32.1218L236.194 30.9024ZM248.115 1.51208V0.512083H247.115V1.51208H248.115ZM255.675 1.51208H256.675V0.512083H255.675V1.51208ZM255.675 31.5121V32.5121H256.675V31.5121H255.675ZM248.115 31.5121H247.115V32.5121H248.115V31.5121ZM248.115 2.51208H255.675V0.512083H248.115V2.51208ZM254.675 1.51208V31.5121H256.675V1.51208H254.675ZM255.675 30.5121H248.115V32.5121H255.675V30.5121ZM249.115 31.5121V1.51208H247.115V31.5121H249.115ZM285.393 3.39208L284.964 4.29545L285.393 3.39208ZM291.553 8.63208L290.716 9.17989L290.721 9.18678L291.553 8.63208ZM291.553 24.3921L290.718 23.8419L290.717 23.8443L291.553 24.3921ZM285.393 29.6321L284.964 28.7287L285.393 29.6321ZM261.513 31.5121H260.513V32.5121H261.513V31.5121ZM261.513 1.51208V0.512083H260.513V1.51208H261.513ZM269.033 28.4321L268.334 29.1469L270.033 30.8093V28.4321H269.033ZM265.353 24.8321V23.8321H262.901L264.654 25.5469L265.353 24.8321ZM281.713 23.7921L281.273 22.8943L281.713 23.7921ZM284.993 20.9121L285.839 21.4454L285.844 21.4372L284.993 20.9121ZM284.993 12.1121L284.147 12.6454L284.993 12.1121ZM281.713 9.23208L282.154 8.33429V8.33429L281.713 9.23208ZM265.353 8.19209L264.654 7.47725L262.901 9.19209H265.353V8.19209ZM269.033 4.59208H270.033V2.2149L268.334 3.87725L269.033 4.59208ZM276.153 2.51208C279.555 2.51208 282.483 3.11742 284.964 4.29545L285.822 2.48872C283.023 1.16008 279.792 0.512083 276.153 0.512083V2.51208ZM284.964 4.29545C287.454 5.47743 289.36 7.10754 290.717 9.17987L292.39 8.0843C290.813 5.67663 288.612 3.8134 285.822 2.48872L284.964 4.29545ZM290.721 9.18678C292.092 11.2433 292.793 13.6718 292.793 16.5121H294.793C294.793 13.3257 294.001 10.5008 292.385 8.07738L290.721 9.18678ZM292.793 16.5121C292.793 19.3236 292.093 21.7548 290.718 23.8419L292.388 24.9422C294 22.496 294.793 19.6739 294.793 16.5121H292.793ZM290.717 23.8443C289.36 25.9166 287.454 27.5467 284.964 28.7287L285.822 30.5354C288.612 29.2108 290.813 27.3475 292.39 24.9399L290.717 23.8443ZM284.964 28.7287C282.483 29.9067 279.555 30.5121 276.153 30.5121V32.5121C279.792 32.5121 283.023 31.8641 285.822 30.5354L284.964 28.7287ZM276.153 30.5121H261.513V32.5121H276.153V30.5121ZM262.513 31.5121V1.51208H260.513V31.5121H262.513ZM261.513 2.51208H276.153V0.512083H261.513V2.51208ZM269.732 27.7173L266.052 24.1173L264.654 25.5469L268.334 29.1469L269.732 27.7173ZM265.353 25.8321H276.713V23.8321H265.353V25.8321ZM276.713 25.8321C278.753 25.8321 280.576 25.4636 282.154 24.6899L281.273 22.8943C280.023 23.5072 278.513 23.8321 276.713 23.8321V25.8321ZM282.154 24.6899C283.718 23.9222 284.959 22.8421 285.839 21.4454L284.147 20.3788C283.481 21.4354 282.534 22.2753 281.273 22.8943L282.154 24.6899ZM285.844 21.4372C286.728 20.0048 287.153 18.3509 287.153 16.5121H285.153C285.153 18.0333 284.805 19.3128 284.142 20.387L285.844 21.4372ZM287.153 16.5121C287.153 14.6506 286.73 12.9916 285.839 11.5788L284.147 12.6454C284.803 13.6859 285.153 14.9603 285.153 16.5121H287.153ZM285.839 11.5788C284.959 10.1821 283.718 9.10197 282.154 8.33429L281.273 10.1299C282.534 10.7489 283.481 11.5888 284.147 12.6454L285.839 11.5788ZM282.154 8.33429C280.576 7.56056 278.753 7.19209 276.713 7.19209V9.19209C278.513 9.19209 280.023 9.51694 281.273 10.1299L282.154 8.33429ZM276.713 7.19209H265.353V9.19209H276.713V7.19209ZM266.052 8.90692L269.732 5.30692L268.334 3.87725L264.654 7.47725L266.052 8.90692ZM268.033 4.59208V28.4321H270.033V4.59208H268.033ZM301.796 25.4721H300.796V26.4721H301.796V25.4721ZM301.796 19.3921V18.3921H300.796V19.3921H301.796ZM322.516 19.3921H323.516V18.3921H322.516V19.3921ZM322.516 25.4721V26.4721H323.516V25.4721H322.516ZM317.236 1.51208L318.144 1.09318L317.876 0.512083H317.236V1.51208ZM331.076 31.5121V32.5121H332.639L331.984 31.0932L331.076 31.5121ZM323.036 31.5121L322.122 31.9168L322.385 32.5121H323.036V31.5121ZM311.156 4.67208V3.67208H309.62L310.242 5.07683L311.156 4.67208ZM313.476 4.67208L314.391 5.07569L315.01 3.67208H313.476V4.67208ZM301.636 31.5121V32.5121H302.288L302.551 31.9157L301.636 31.5121ZM293.596 31.5121L292.688 31.0932L292.033 32.5121H293.596V31.5121ZM307.436 1.51208V0.512083H306.796L306.528 1.09318L307.436 1.51208ZM302.796 25.4721V19.3921H300.796V25.4721H302.796ZM301.796 20.3921H322.516V18.3921H301.796V20.3921ZM321.516 19.3921V25.4721H323.516V19.3921H321.516ZM322.516 24.4721H301.796V26.4721H322.516V24.4721ZM316.328 1.93099L330.168 31.931L331.984 31.0932L318.144 1.09318L316.328 1.93099ZM331.076 30.5121H323.036V32.5121H331.076V30.5121ZM323.95 31.1073L312.07 4.26734L310.242 5.07683L322.122 31.9168L323.95 31.1073ZM311.156 5.67208H313.476V3.67208H311.156V5.67208ZM312.561 4.26848L300.721 31.1085L302.551 31.9157L314.391 5.07569L312.561 4.26848ZM301.636 30.5121H293.596V32.5121H301.636V30.5121ZM294.504 31.931L308.344 1.93099L306.528 1.09318L292.688 31.0932L294.504 31.931ZM307.436 2.51208H317.236V0.512083H307.436V2.51208ZM339.322 31.5121H338.322V32.5121H339.322V31.5121ZM339.322 16.9921V15.9921H338.322V16.9921H339.322ZM346.882 16.9921H347.882V15.9921H346.882V16.9921ZM346.882 31.5121V32.5121H347.882V31.5121H346.882ZM325.242 1.51208V0.512083H323.185L324.456 2.1299L325.242 1.51208ZM333.602 1.51208L334.388 0.893871L334.088 0.512083H333.602V1.51208ZM344.802 15.7521V16.7521H346.861L345.588 15.1339L344.802 15.7521ZM341.322 15.7521L340.536 15.1339L339.263 16.7521H341.322V15.7521ZM352.522 1.51208V0.512083H352.036L351.736 0.893871L352.522 1.51208ZM360.882 1.51208L361.668 2.13047L362.942 0.512083H360.882V1.51208ZM345.522 21.0321L345.539 22.0319L346.014 22.0242L346.308 21.6505L345.522 21.0321ZM340.642 21.1121L339.856 21.7299L340.162 22.1201L340.659 22.1119L340.642 21.1121ZM340.322 31.5121V16.9921H338.322V31.5121H340.322ZM339.322 17.9921H346.882V15.9921H339.322V17.9921ZM345.882 16.9921V31.5121H347.882V16.9921H345.882ZM346.882 30.5121H339.322V32.5121H346.882V30.5121ZM325.242 2.51208H333.602V0.512083H325.242V2.51208ZM332.816 2.13029L344.016 16.3703L345.588 15.1339L334.388 0.893871L332.816 2.13029ZM344.802 14.7521H341.322V16.7521H344.802V14.7521ZM342.108 16.3703L353.308 2.13029L351.736 0.893871L340.536 15.1339L342.108 16.3703ZM352.522 2.51208H360.882V0.512083H352.522V2.51208ZM360.096 0.893692L344.736 20.4137L346.308 21.6505L361.668 2.13047L360.096 0.893692ZM345.506 20.0322L340.626 20.1122L340.659 22.1119L345.539 22.0319L345.506 20.0322ZM341.429 20.4943L326.029 0.894261L324.456 2.1299L339.856 21.7299L341.429 20.4943Z" fill="currentColor" mask="url(#path-1-outside-1_1_1411)"/>
</svg>
