<svg width="383" height="536" viewBox="0 0 383 536" fill="none" xmlns="http://www.w3.org/2000/svg">
<path d="M203.516 487.12C202.053 485.136 201.405 482.572 201.715 479.993C202.025 477.414 203.267 475.031 205.168 473.368C207.069 471.705 209.474 470.898 211.852 471.125C214.231 471.352 216.389 472.594 217.852 474.578L216.9 475.41C215.632 473.689 213.76 472.612 211.697 472.415C209.634 472.219 207.549 472.919 205.9 474.361C204.252 475.803 203.174 477.87 202.906 480.107C202.637 482.343 203.199 484.567 204.467 486.287L203.516 487.12Z" fill="white"/>
<path d="M20.4145 366.389C15.5162 365.393 12.0258 363.321 9.94325 360.175C7.89078 357.035 7.36895 352.985 8.37775 348.027L10.2761 338.696L21.9059 341.062L20.2093 349.401C19.7935 351.445 20.0106 353.07 20.8607 354.275C21.7407 355.487 23.2776 356.316 25.4714 356.762C26.7936 357.031 28.1915 357.159 29.665 357.146C31.1686 357.139 32.7148 357 34.3034 356.729L33.0094 366.088C31.1731 366.654 29.1694 366.966 26.998 367.025C24.8628 367.06 22.6683 366.848 20.4145 366.389ZM28.5506 377.621L35.4289 343.814L47.0586 346.18L40.1804 379.987L28.5506 377.621ZM81.3541 366.583L79.7216 374.606L54.2534 369.425L55.8858 361.401L81.3541 366.583ZM63.0482 367.036L58.4159 379.191L54.9889 373.424L80.6374 378.642L78.7666 387.838L46.041 381.179L51.9593 364.78L52.9192 347.372L85.4194 353.984L83.5485 363.18L58.1254 358.008L63.5333 354.038L63.0482 367.036ZM111.452 359.281C114.517 359.904 117.028 360.947 118.984 362.409C120.976 363.847 122.353 365.614 123.116 367.709C123.885 369.775 124.016 372.055 123.508 374.549C123.001 377.043 121.987 379.106 120.466 380.737C118.951 382.337 116.992 383.425 114.591 384.001C112.225 384.552 109.51 384.516 106.445 383.893L92.1556 380.985L93.9989 371.925L107.522 374.676C108.664 374.909 109.608 374.804 110.356 374.361C111.103 373.918 111.58 373.186 111.788 372.164C112.002 371.113 111.849 370.252 111.328 369.583C110.813 368.883 109.984 368.418 108.843 368.185L96.3112 365.636L102.604 361.471L96.5052 391.447L84.8755 389.081L91.7537 355.273L111.452 359.281ZM130.831 363.224L142.461 365.59L135.583 399.397L123.953 397.031L130.831 363.224ZM156.885 368.524L168.515 370.891L161.637 404.698L150.007 402.332L156.885 368.524ZM135.092 375.967L159.118 380.855L157.027 391.132L133.001 386.244L135.092 375.967ZM177.58 402.027L179.46 392.786L202.494 397.473L200.614 406.713L177.58 402.027ZM202.776 377.861L210.728 414.686L198.332 412.164L192.49 381.12L195.465 381.725L177.957 408.018L165.561 405.496L187.269 374.706L202.776 377.861ZM245.003 401.521L243.361 409.589L229.703 406.811L229.713 406.531C227.008 405.981 224.723 405.062 222.857 403.775C221.027 402.464 219.709 400.865 218.903 398.98C218.128 397.101 217.966 395.05 218.419 392.826C218.883 390.542 219.843 388.672 221.297 387.215C222.781 385.765 224.625 384.779 226.828 384.257C229.067 383.711 231.539 383.713 234.243 384.263L255.97 388.684L249.092 422.491L237.462 420.125L243.744 389.247L247.91 395.54L234.387 392.789C233.245 392.557 232.303 392.647 231.562 393.059C230.821 393.472 230.346 394.189 230.138 395.211C229.931 396.232 230.087 397.078 230.608 397.747C231.129 398.416 231.961 398.867 233.103 399.1L245.003 401.521ZM239.96 404.156L226.148 417.823L212.851 415.117L227.113 401.543L239.96 404.156Z" fill="white"/>
<path d="M44.032 442.492V476.992H32.164V447.644L37.5 452.98H12.292L17.628 447.644V476.992H5.76V442.492H44.032ZM77.8948 457.258V465.492H63.9568L63.9108 465.216C61.1508 465.216 58.7282 464.772 56.6428 463.882C54.5882 462.962 52.9782 461.659 51.8128 459.972C50.6782 458.286 50.1108 456.308 50.1108 454.038C50.1108 451.708 50.6782 449.684 51.8128 447.966C52.9782 446.249 54.5882 444.915 56.6428 443.964C58.7282 442.983 61.1508 442.492 63.9108 442.492H86.0828V476.992H74.2148V445.482L79.5508 450.818H65.7508C64.5855 450.818 63.6808 451.094 63.0368 451.646C62.3928 452.198 62.0708 452.996 62.0708 454.038C62.0708 455.081 62.3928 455.878 63.0368 456.43C63.6808 456.982 64.5855 457.258 65.7508 457.258H77.8948ZM73.4788 460.846L62.6688 476.992H49.0988L60.3688 460.846H73.4788ZM103.599 447.598H115.467V476.992H103.599V447.598ZM91.1791 442.492H127.887V453.072H91.1791V442.492ZM132.986 442.492H144.854V476.992H132.986V442.492ZM159.574 442.492H171.442V476.992H159.574V442.492ZM139.702 454.13H164.22V464.618H139.702V454.13ZM178.344 476.992V442.492H190.12V470.506L187.084 469.816L203.644 442.492H219.146V476.992H207.37V448.242L210.406 448.932L193.386 476.992H178.344ZM263.943 442.492V470.46L259.527 466.504H269.831V483.846H258.699V474.6L261.229 476.992H226.039V442.492H237.907V470.46L233.951 466.504H256.491L252.075 470.46V442.492H263.943ZM283.314 471.196V461.766H306.82V471.196H283.314ZM303.186 442.492L318.32 476.992H305.67L293.756 447.736H296.792L284.878 476.992H272.228L287.362 442.492H303.186Z" fill="#FE64FA"/>
<circle cx="14.7415" cy="344.513" r="2.74148" fill="#151515"/>
<path d="M13.8276 344.513C13.8276 345.018 14.2368 345.427 14.7415 345.427C15.2462 345.427 15.6553 345.018 15.6553 344.513H13.8276ZM15.6553 344.513L15.6553 -3.99447e-08L13.8276 3.99447e-08L13.8276 344.513H15.6553Z" fill="#FE64FA"/>
<circle cx="250.741" cy="393.513" r="2.74148" fill="#151515"/>
<path d="M249.828 393.513C249.828 394.018 250.237 394.427 250.741 394.427C251.246 394.427 251.655 394.018 251.655 393.513H249.828ZM251.655 393.513L251.655 49L249.828 49L249.828 393.513H251.655Z" fill="#8F8FFF"/>
<rect x="112" y="512.433" width="101.91" height="25.0688" rx="12.5344" transform="rotate(-22.3343 112 512.433)" fill="#FFEB1C"/>
<path d="M143.717 514.866L146.887 513.564C146.992 513.728 147.147 513.844 147.354 513.91C147.557 513.968 147.806 513.978 148.102 513.942C148.395 513.897 148.727 513.798 149.098 513.646C149.582 513.447 149.937 513.244 150.163 513.038C150.398 512.829 150.47 512.615 150.381 512.397C150.321 512.252 150.195 512.163 150.002 512.129C149.805 512.087 149.463 512.148 148.973 512.311L147.434 512.83C146.034 513.302 144.931 513.416 144.124 513.172C143.317 512.929 142.747 512.404 142.416 511.597C142.138 510.92 142.099 510.275 142.301 509.665C142.503 509.054 142.904 508.493 143.505 507.983C144.114 507.468 144.886 507.019 145.821 506.635C146.733 506.26 147.592 506.058 148.4 506.028C149.213 505.986 149.919 506.111 150.519 506.402C151.127 506.689 151.578 507.131 151.87 507.727L148.7 509.03C148.616 508.894 148.484 508.802 148.304 508.754C148.132 508.702 147.913 508.698 147.648 508.741C147.383 508.784 147.077 508.876 146.73 509.019C146.287 509.201 145.954 509.39 145.732 509.584C145.519 509.776 145.453 509.972 145.536 510.174C145.592 510.311 145.713 510.398 145.898 510.435C146.091 510.469 146.408 510.414 146.849 510.271L148.587 509.684C149.498 509.376 150.27 509.214 150.905 509.199C151.536 509.175 152.051 509.293 152.45 509.553C152.857 509.81 153.17 510.205 153.389 510.737C153.664 511.407 153.707 512.073 153.517 512.735C153.327 513.397 152.931 514.017 152.33 514.594C151.732 515.16 150.958 515.639 150.006 516.03C149.022 516.434 148.105 516.655 147.253 516.694C146.402 516.733 145.667 516.596 145.049 516.285C144.439 515.97 143.995 515.497 143.717 514.866ZM157.203 511.037L156.184 508.557L162.366 506.017L163.385 508.497L157.203 511.037ZM159.328 501.34L167.036 508.779L163.709 510.146L157.415 503.738L158.213 503.41L158.241 512.392L154.914 513.759L155.166 503.05L159.328 501.34ZM167.483 497.99L170.645 505.684L168.665 504.858L175.415 502.084L176.559 504.867L168.09 508.346L164.362 499.272L167.483 497.99ZM183.692 495.375L184.577 497.529L177.741 500.337L176.856 498.183L183.692 495.375ZM179.44 498.38L180.27 501.984L178.548 501.165L185.432 498.337L186.446 500.805L177.663 504.413L176.464 499.603L173.935 495.34L182.658 491.756L183.672 494.224L176.848 497.027L177.497 495.234L179.44 498.38Z" fill="#151515"/>
<circle cx="204.668" cy="487.237" r="1.63492" transform="rotate(7.12014 204.668 487.237)" fill="#151515"/>
<path d="M323.466 315.323L337.451 279.415L307.211 308.102L277.067 272.663L287.44 314.35L235.728 315.838L284.59 332.854L261.431 372.967L304.08 344.106L336.858 384.674L322.354 334.507L363.38 327.969L323.466 315.323Z" stroke="white" stroke-width="9.90528"/>
<circle cx="216.699" cy="474.46" r="1.63492" transform="rotate(7.12014 216.699 474.46)" fill="#151515"/>
<path d="M217.005 473.725C218.706 475.508 219.671 477.97 219.689 480.567C219.706 483.165 218.774 485.685 217.098 487.575C215.421 489.464 213.138 490.567 210.749 490.642C208.361 490.716 206.064 489.756 204.363 487.972L205.202 487.027C206.677 488.574 208.669 489.407 210.741 489.342C212.812 489.277 214.792 488.32 216.246 486.682C217.7 485.043 218.509 482.857 218.494 480.605C218.479 478.352 217.641 476.217 216.166 474.67L217.005 473.725Z" fill="white"/>
</svg>
