<svg width="1004" height="775" viewBox="0 0 1004 775" fill="none" xmlns="http://www.w3.org/2000/svg">
<path d="M104.728 701.027C103.24 698.32 102.798 695.078 103.501 692.015C104.204 688.952 105.993 686.319 108.475 684.695C110.957 683.071 113.929 682.59 116.736 683.356C119.544 684.123 121.958 686.074 123.446 688.782L122.204 689.595C120.913 687.246 118.82 685.554 116.385 684.889C113.95 684.224 111.372 684.642 109.22 686.05C107.067 687.459 105.515 689.742 104.906 692.398C104.297 695.055 104.68 697.866 105.971 700.215L104.728 701.027Z" fill="white"/>
<path d="M909.15 433.566L977.394 403.578L896.792 401.455L904.035 311.747L861.203 382.957L788.433 314.257L831.993 404.369L745.446 427.559L843.261 446.42L832.607 546.746L881.387 458.285L946.448 505.46L909.15 433.566Z" stroke="white" stroke-width="19.161"/>
<path d="M66.1781 439.266C53.3542 436.902 44.1507 431.667 38.5677 423.56C33.0634 415.469 31.5077 404.932 33.9005 391.951L38.4035 367.522L68.8505 373.135L64.8262 394.967C63.84 400.317 64.4845 404.543 66.7595 407.647C69.1132 410.766 73.1617 412.854 78.9049 413.913C82.3666 414.551 86.0188 414.817 89.8615 414.712C93.7829 414.622 97.8089 414.184 101.94 413.4L99.0142 437.875C94.2521 439.438 89.0407 440.348 83.3801 440.606C77.8127 440.8 72.0787 440.353 66.1781 439.266ZM87.939 468.169L104.254 379.661L134.701 385.273L118.386 473.782L87.939 468.169ZM225.133 436.841L221.261 457.847L154.584 445.556L158.457 424.55L225.133 436.841ZM177.409 438.903L165.911 470.828L156.695 455.951L223.844 468.329L219.406 492.403L133.729 476.61L148.378 433.552L150.045 388.101L235.131 403.785L230.693 427.86L164.135 415.591L178.049 404.978L177.409 438.903ZM303.286 416.349C311.31 417.828 317.909 420.427 323.08 424.146C328.345 427.801 332.022 432.343 334.113 437.772C336.218 443.122 336.668 449.062 335.465 455.592C334.261 462.122 331.715 467.55 327.826 471.877C323.952 476.125 318.897 479.057 312.66 480.674C306.517 482.226 299.433 482.262 291.408 480.783L253.999 473.887L258.371 450.167L293.775 456.693C296.764 457.244 299.223 456.924 301.151 455.734C303.078 454.544 304.289 452.611 304.782 449.936C305.289 447.183 304.848 444.945 303.456 443.225C302.08 441.425 299.897 440.25 296.907 439.699L264.1 433.652L280.312 422.486L265.846 500.964L235.399 495.351L251.714 406.842L303.286 416.349ZM354.021 425.701L384.468 431.313L368.153 519.822L337.706 514.21L354.021 425.701ZM422.231 438.274L452.678 443.886L436.363 532.395L405.916 526.783L422.231 438.274ZM365.747 458.734L428.647 470.328L423.687 497.235L360.787 485.64L365.747 458.734ZM477.819 524.662L482.278 500.47L542.582 511.586L538.123 535.778L477.819 524.662ZM542.374 460.42L564.885 556.086L532.431 550.104L515.702 469.414L523.49 470.85L479.09 540.271L446.637 534.289L501.778 452.937L542.374 460.42ZM653.65 520.101L649.756 541.225L613.999 534.634L614.011 533.904C606.93 532.599 600.925 530.312 595.996 527.045C591.16 523.713 587.646 519.608 585.454 514.73C583.34 509.866 582.82 504.523 583.894 498.701C584.996 492.722 587.408 487.798 591.131 483.928C594.933 480.074 599.694 477.413 605.415 475.946C611.229 474.414 617.676 474.301 624.757 475.606L681.639 486.091L665.324 574.6L634.877 568.988L649.778 488.15L660.944 504.362L625.54 497.836C622.551 497.285 620.099 497.566 618.186 498.677C616.273 499.789 615.07 501.682 614.577 504.357C614.084 507.032 614.533 509.23 615.924 510.95C617.315 512.671 619.505 513.807 622.495 514.358L653.65 520.101ZM640.624 527.218L605.256 563.528L570.442 557.11L606.991 521.018L640.624 527.218Z" fill="white"/>
<path d="M127.04 601V691H96.08V614.44L110 628.36H44.24L58.16 614.44V691H27.2V601H127.04ZM215.378 639.52V661H179.018L178.898 660.28C171.698 660.28 165.378 659.12 159.938 656.8C154.578 654.4 150.378 651 147.338 646.6C144.378 642.2 142.898 637.04 142.898 631.12C142.898 625.04 144.378 619.76 147.338 615.28C150.378 610.8 154.578 607.32 159.938 604.84C165.378 602.28 171.698 601 178.898 601H236.738V691H205.778V608.8L219.698 622.72H183.698C180.658 622.72 178.298 623.44 176.618 624.88C174.938 626.32 174.098 628.4 174.098 631.12C174.098 633.84 174.938 635.92 176.618 637.36C178.298 638.8 180.658 639.52 183.698 639.52H215.378ZM203.858 648.88L175.658 691H140.258L169.658 648.88H203.858ZM282.432 614.32H313.392V691H282.432V614.32ZM250.032 601H345.793V628.6H250.032V601ZM359.094 601H390.054V691H359.094V601ZM428.454 601H459.414V691H428.454V601ZM376.614 631.36H440.574V658.72H376.614V631.36ZM477.42 691V601H508.14V674.08L500.22 672.28L543.42 601H583.86V691H553.14V616L561.06 617.8L516.66 691H477.42ZM700.721 601V673.96L689.201 663.64H716.081V708.88H687.041V684.76L693.641 691H601.841V601H632.801V673.96L622.481 663.64H681.281L669.761 673.96V601H700.721ZM751.254 675.88V651.28H812.574V675.88H751.254ZM803.094 601L842.574 691H809.574L778.494 614.68H786.414L755.334 691H722.334L761.814 601H803.094Z" fill="#FE64FA"/>
<circle cx="665" cy="493" r="3" fill="#151515"/>
<path d="M664 493C664 493.552 664.448 494 665 494C665.552 494 666 493.552 666 493H664ZM666 493L666 116L664 116L664 493H666Z" fill="#8F8FFF"/>
<circle cx="52" cy="377" r="3" fill="#151515"/>
<path d="M51 377C51 377.552 51.4477 378 52 378C52.5523 378 53 377.552 53 377H51ZM53 377L53 -4.37114e-08L51 4.37114e-08L51 377H53Z" fill="#FE64FA"/>
<rect y="747.784" width="123.677" height="30.4233" rx="15.2116" transform="rotate(-29.4544 0 747.784)" fill="#FFEB1C"/>
<path d="M38.2053 745.492L41.8265 743.447C41.9778 743.629 42.1826 743.744 42.441 743.793C42.6941 743.832 42.9961 743.808 43.347 743.719C43.6927 743.621 44.0775 743.452 44.5013 743.213C45.0542 742.9 45.4514 742.603 45.6931 742.321C45.9439 742.033 45.9991 741.765 45.8586 741.517C45.7649 741.351 45.5993 741.262 45.3618 741.25C45.1191 741.229 44.7155 741.354 44.1511 741.624L42.3748 742.481C40.7603 743.259 39.4489 743.562 38.4404 743.391C37.4319 743.219 36.6675 742.672 36.1471 741.751C35.71 740.977 35.5669 740.207 35.7178 739.441C35.8687 738.675 36.2675 737.94 36.9142 737.234C37.5702 736.524 38.4326 735.866 39.5014 735.263C40.5427 734.675 41.5473 734.302 42.5155 734.144C43.4877 733.972 44.357 734.016 45.1235 734.275C45.8993 734.53 46.5079 734.994 46.9494 735.669L43.3282 737.714C43.2069 737.563 43.0341 737.473 42.8098 737.441C42.5948 737.405 42.3308 737.432 42.018 737.524C41.7051 737.616 41.3506 737.773 40.9544 737.997C40.4476 738.283 40.0754 738.56 39.8378 738.828C39.6094 739.091 39.5602 739.337 39.6903 739.568C39.7787 739.724 39.9371 739.811 40.1654 739.828C40.4029 739.84 40.7763 739.726 41.2854 739.487L43.2907 738.519C44.3407 738.011 45.2466 737.7 46.0085 737.586C46.7651 737.462 47.4033 737.527 47.9231 737.78C48.4522 738.028 48.8884 738.457 49.2318 739.065C49.6637 739.829 49.8152 740.625 49.6863 741.451C49.5574 742.278 49.174 743.083 48.5361 743.869C47.9022 744.64 47.0415 745.333 45.9543 745.947C44.8301 746.582 43.7583 746.986 42.7389 747.161C41.7195 747.336 40.8141 747.282 40.0227 747C39.2406 746.712 38.6348 746.21 38.2053 745.492ZM53.8699 738.852L52.2698 736.018L59.3326 732.03L60.9327 734.863L53.8699 738.852ZM54.9703 726.855L65.3715 734.653L61.5706 736.8L53.0267 730.031L53.9389 729.516L55.3233 740.328L51.5224 742.474L50.2157 729.54L54.9703 726.855ZM64.2872 721.594L69.2513 730.384L66.7426 729.686L74.455 725.331L76.2502 728.51L66.5752 733.974L60.7213 723.608L64.2872 721.594ZM83.4127 716.007L84.802 718.467L76.9929 722.877L75.6036 720.417L83.4127 716.007ZM78.7447 720.265L80.2865 724.481L78.0891 723.753L85.9534 719.312L87.5457 722.131L77.5114 727.798L75.3446 722.185L71.6574 717.432L81.6227 711.804L83.2149 714.624L75.4197 719.026L75.9312 716.768L78.7447 720.265Z" fill="#151515"/>
<circle cx="107.804" cy="703.503" r="1.98413" fill="#151515"/>
<circle cx="120.37" cy="686.307" r="1.98413" fill="#151515"/>
<path d="M120.628 685.375C122.945 687.267 124.477 690.086 124.889 693.211C125.301 696.337 124.557 699.512 122.823 702.04C121.088 704.567 118.504 706.239 115.639 706.688C112.775 707.138 109.864 706.327 107.547 704.434L108.415 703.17C110.424 704.811 112.949 705.514 115.433 705.124C117.918 704.735 120.159 703.285 121.663 701.093C123.168 698.901 123.812 696.147 123.455 693.436C123.098 690.726 121.769 688.281 119.76 686.64L120.628 685.375Z" fill="white"/>
</svg>
