<svg width="1319" height="876" viewBox="0 0 1319 876" fill="none" xmlns="http://www.w3.org/2000/svg">
<path d="M158.52 765.561C156.851 762.656 155.977 759.291 156 755.863C156.024 752.434 156.945 749.085 158.655 746.208C160.365 743.331 162.792 741.047 165.652 739.624C168.511 738.201 171.684 737.698 174.796 738.175L174.491 740.541C171.792 740.127 169.041 740.563 166.561 741.797C164.081 743.031 161.976 745.012 160.493 747.507C159.01 750.003 158.211 752.908 158.19 755.881C158.17 758.855 158.928 761.773 160.376 764.292L158.52 765.561Z" fill="#D9D9D9"/>
<path d="M1211.9 414.299L1301.19 387.433L1201.44 372.555L1224.05 262.278L1160.06 344.184L1080.15 247.837L1120.54 366.332L1009.57 381.979L1128.15 420.251L1099.68 543.193L1173.68 440.774L1247.29 509.224L1211.9 414.299Z" stroke="white" stroke-width="23.9667"/>
<path d="M105.692 455.836C88.4355 453.716 75.7677 447.484 67.6888 437.142C59.7158 426.812 56.8027 412.913 58.9493 395.444L62.9889 362.572L103.961 367.606L100.35 396.985C99.4658 404.185 100.661 409.759 103.938 413.708C107.32 417.67 112.875 420.126 120.603 421.075C125.262 421.648 130.144 421.71 135.25 421.263C140.462 420.829 145.785 419.925 151.22 418.551L149.284 451.36C143.071 453.82 136.208 455.449 128.694 456.245C121.3 456.948 113.633 456.812 105.692 455.836ZM136.966 492.565L151.602 373.461L192.574 378.496L177.938 497.6L136.966 492.565ZM317.057 439.897L313.583 468.164L223.858 457.138L227.332 428.871L317.057 439.897ZM253.704 446.459L240.954 489.868L227.499 470.804L317.859 481.908L313.878 514.305L198.585 500.137L214.638 441.658L213.221 381.033L327.72 395.103L323.739 427.499L234.173 416.493L251.843 401.254L253.704 446.459ZM419.434 406.373C430.233 407.7 439.222 410.632 446.403 415.168C453.702 419.612 458.96 425.363 462.176 432.421C465.406 439.373 466.48 447.243 465.401 456.031C464.321 464.818 461.366 472.246 456.536 478.316C451.72 484.279 445.226 488.586 437.055 491.236C429.003 493.793 419.578 494.408 408.779 493.081L358.437 486.895L362.36 454.975L410.002 460.829C414.025 461.324 417.271 460.702 419.742 458.964C422.212 457.225 423.669 454.556 424.111 450.957C424.566 447.251 423.8 444.309 421.81 442.13C419.834 439.845 416.835 438.456 412.812 437.962L368.664 432.536L389.349 416.379L376.372 521.984L335.4 516.949L350.036 397.845L419.434 406.373ZM487.707 414.763L528.678 419.798L514.042 538.902L473.07 533.867L487.707 414.763ZM579.496 426.043L620.468 431.077L605.832 550.182L564.86 545.147L579.496 426.043ZM505.955 457.79L590.598 468.191L586.149 504.399L501.506 493.998L505.955 457.79ZM660.388 536.574L664.388 504.019L745.538 513.991L741.537 546.546L660.388 536.574ZM741.169 445.91L778.78 571.434L735.108 566.068L706.389 460.013L716.87 461.301L663.328 557.247L619.657 551.88L686.54 439.197L741.169 445.91ZM894.042 516.442L890.549 544.868L842.431 538.955L842.39 537.983C832.861 536.812 824.686 534.249 817.864 530.294C811.161 526.246 806.156 521.064 802.848 514.747C799.647 508.442 798.527 501.373 799.49 493.539C800.479 485.493 803.296 478.746 807.942 473.298C812.693 467.864 818.818 463.942 826.314 461.531C833.93 459.028 842.502 458.362 852.03 459.533L928.574 468.939L913.938 588.043L872.966 583.008L886.334 474.227L902.492 494.912L854.85 489.057C850.827 488.563 847.587 489.132 845.129 490.765C842.672 492.397 841.222 495.013 840.779 498.613C840.337 502.212 841.11 505.101 843.1 507.28C845.089 509.459 848.095 510.796 852.118 511.29L894.042 516.442ZM877.275 526.955L833.106 578.11L786.258 572.353L832.015 521.394L877.275 526.955Z" fill="white"/>
<path d="M188.72 630V750H147.44V647.92L166 666.48H78.32L96.88 647.92V750H55.6V630H188.72ZM306.504 681.36V710H258.024L257.864 709.04C248.264 709.04 239.837 707.493 232.584 704.4C225.437 701.2 219.837 696.667 215.784 690.8C211.837 684.933 209.864 678.053 209.864 670.16C209.864 662.053 211.837 655.013 215.784 649.04C219.837 643.067 225.437 638.427 232.584 635.12C239.837 631.707 248.264 630 257.864 630H334.984V750H293.704V640.4L312.264 658.96H264.264C260.21 658.96 257.064 659.92 254.824 661.84C252.584 663.76 251.464 666.533 251.464 670.16C251.464 673.787 252.584 676.56 254.824 678.48C257.064 680.4 260.21 681.36 264.264 681.36H306.504ZM291.144 693.84L253.544 750H206.344L245.544 693.84H291.144ZM395.91 647.76H437.19V750H395.91V647.76ZM352.71 630H480.39V666.8H352.71V630ZM498.125 630H539.405V750H498.125V630ZM590.605 630H631.885V750H590.605V630ZM521.485 670.48H606.765V706.96H521.485V670.48ZM655.894 750V630H696.854V727.44L686.294 725.04L743.894 630H797.814V750H756.854V650L767.414 652.4L708.214 750H655.894ZM953.628 630V727.28L938.268 713.52H974.108V773.84H935.388V741.68L944.188 750H821.788V630H863.068V727.28L849.308 713.52H927.708L912.348 727.28V630H953.628ZM1021 729.84V697.04H1102.76V729.84H1021ZM1090.12 630L1142.76 750H1098.76L1057.32 648.24H1067.88L1026.44 750H982.445L1035.08 630H1090.12Z" fill="#FE64FA"/>
<circle cx="910" cy="479" r="3" fill="#151515"/>
<path d="M909 479C909 479.552 909.448 480 910 480C910.552 480 911 479.552 911 479H909ZM911 479L911 102L909 102L909 479H911Z" fill="#8F8FFF"/>
<circle cx="74" cy="377" r="3" fill="#151515"/>
<path d="M73 377C73 377.552 73.4477 378 74 378C74.5523 378 75 377.552 75 377H73ZM75 377L75 -4.37114e-08L73 4.37114e-08L73 377H75Z" fill="#FE64FA"/>
<rect y="835.954" width="187" height="46" rx="23" transform="rotate(-29.4544 0 835.954)" fill="#FFEB1C"/>
<path d="M57.96 833.164L63.4352 830.072C63.664 830.347 63.9737 830.522 64.3643 830.595C64.7471 830.655 65.2037 830.617 65.7343 830.483C66.257 830.335 66.8387 830.08 67.4796 829.718C68.3155 829.246 68.9162 828.796 69.2815 828.369C69.6608 827.935 69.7442 827.529 69.5318 827.153C69.3902 826.902 69.1398 826.768 68.7807 826.75C68.4137 826.719 67.8035 826.907 66.95 827.316L64.2642 828.612C61.8232 829.788 59.8403 830.247 58.3154 829.987C56.7906 829.727 55.6348 828.901 54.848 827.507C54.1872 826.337 53.9708 825.173 54.1989 824.015C54.4271 822.857 55.0301 821.745 56.0079 820.678C56.9997 819.604 58.3037 818.61 59.9198 817.698C61.4941 816.808 63.0132 816.245 64.477 816.006C65.9469 815.745 67.2614 815.812 68.4203 816.205C69.5933 816.59 70.5135 817.292 71.1811 818.311L65.7059 821.403C65.5225 821.176 65.2612 821.039 64.9221 820.992C64.5969 820.936 64.1978 820.978 63.7247 821.116C63.2517 821.255 62.7156 821.493 62.1166 821.832C61.3503 822.264 60.7875 822.683 60.4283 823.088C60.0829 823.485 60.0086 823.858 60.2053 824.206C60.339 824.443 60.5785 824.574 60.9237 824.6C61.2828 824.618 61.8473 824.446 62.6172 824.085L65.6491 822.621C67.2367 821.853 68.6064 821.382 69.7584 821.21C70.9024 821.023 71.8674 821.121 72.6534 821.504C73.4533 821.879 74.1128 822.527 74.6321 823.446C75.2851 824.602 75.5142 825.805 75.3193 827.055C75.1244 828.304 74.5447 829.522 73.5801 830.71C72.6216 831.876 71.3204 832.923 69.6764 833.852C67.9767 834.812 66.3562 835.424 64.8148 835.688C63.2734 835.952 61.9045 835.87 60.708 835.444C59.5254 835.009 58.6094 834.249 57.96 833.164ZM81.6449 823.124L79.2256 818.84L89.9044 812.809L92.3237 817.093L81.6449 823.124ZM83.3087 804.985L99.0352 816.776L93.2883 820.022L80.3699 809.787L81.7492 809.008L83.8424 825.356L78.0955 828.601L76.1198 809.045L83.3087 804.985ZM97.3958 797.03L104.902 810.321L101.108 809.266L112.77 802.681L115.484 807.487L100.855 815.748L92.0041 800.075L97.3958 797.03ZM126.314 788.582L128.414 792.302L116.607 798.97L114.506 795.25L126.314 788.582ZM119.256 795.021L121.587 801.395L118.264 800.294L130.155 793.579L132.563 797.842L117.391 806.41L114.115 797.925L108.54 790.737L123.607 782.228L126.015 786.491L114.228 793.147L115.002 789.734L119.256 795.021Z" fill="#151515"/>
<circle cx="163" cy="769" r="3" fill="#151515"/>
<circle cx="182" cy="743" r="3" fill="#151515"/>
<path d="M182.389 741.591C185.892 744.452 188.21 748.714 188.832 753.44C189.455 758.165 188.331 762.967 185.708 766.788C183.085 770.61 179.178 773.138 174.847 773.817C170.515 774.496 166.114 773.27 162.611 770.409L163.923 768.496C166.961 770.978 170.779 772.041 174.535 771.452C178.292 770.863 181.68 768.671 183.955 765.356C186.23 762.042 187.204 757.878 186.665 753.78C186.125 749.681 184.115 745.985 181.077 743.504L182.389 741.591Z" fill="white"/>
</svg>
