<svg width="784" height="636" viewBox="0 0 784 636" fill="none" xmlns="http://www.w3.org/2000/svg">
<path d="M79.9296 565.313C78.1986 563.558 77.1917 561.113 77.1305 558.517C77.0692 555.92 77.9585 553.384 79.6028 551.467C81.247 549.549 83.5116 548.407 85.8983 548.292C88.2849 548.177 90.5982 549.099 92.3291 550.854L91.5063 551.813C90.005 550.291 87.9988 549.492 85.9289 549.592C83.859 549.692 81.895 550.682 80.469 552.345C79.043 554.008 78.2717 556.207 78.3248 558.459C78.378 560.711 79.2512 562.831 80.7525 564.353L79.9296 565.313Z" fill="white"/>
<path d="M696.297 367.921L729.565 322.597L676.115 351.607L647.016 290.279L645.893 352.946L572.452 335.515L634.889 377.948L587.102 425.734L658.106 401.165L688.982 470.715L687.485 394.538L747.773 400.816L696.297 367.921Z" stroke="white" stroke-width="14.452"/>
<path d="M47.0852 387.736C36.9519 386.449 29.5244 382.758 24.8026 376.663C20.143 370.575 18.4644 362.403 19.7669 352.145L22.218 332.842L46.2768 335.897L44.0862 353.149C43.5494 357.376 44.2387 360.654 46.1541 362.981C48.1316 365.317 51.3895 366.773 55.9277 367.349C58.6631 367.697 61.5312 367.745 64.532 367.494C67.595 367.252 70.7246 366.733 73.9208 365.939L72.7056 385.209C69.0496 386.64 65.0136 387.58 60.5978 388.03C56.252 388.426 51.7478 388.328 47.0852 387.736ZM65.3715 409.388L74.2522 339.449L98.311 342.504L89.4303 412.443L65.3715 409.388ZM171.299 378.872L169.191 395.471L116.504 388.781L118.612 372.182L171.299 378.872ZM134.063 382.577L126.47 408.05L118.61 396.818L171.67 403.556L169.255 422.579L101.554 413.982L111.124 379.664L110.435 344.044L177.669 352.581L175.254 371.605L122.66 364.926L133.077 356.015L134.063 382.577ZM231.524 359.42C237.865 360.225 243.139 361.968 247.347 364.651C251.625 367.278 254.7 370.669 256.573 374.824C258.454 378.916 259.067 383.542 258.412 388.702C257.756 393.862 256.003 398.219 253.151 401.773C250.307 405.266 246.482 407.78 241.675 409.318C236.939 410.801 231.4 411.14 225.059 410.335L195.498 406.581L197.878 387.838L225.854 391.39C228.216 391.69 230.125 391.332 231.58 390.317C233.036 389.302 233.898 387.737 234.166 385.623C234.443 383.447 233.999 381.717 232.836 380.432C231.68 379.085 229.921 378.262 227.559 377.962L201.635 374.67L213.826 365.227L205.951 427.239L181.893 424.184L190.773 354.245L231.524 359.42ZM271.614 364.51L295.673 367.565L286.792 437.504L262.733 434.449L271.614 364.51ZM325.513 371.354L349.572 374.409L340.691 444.348L316.633 441.293L325.513 371.354ZM282.233 389.832L331.936 396.143L329.236 417.404L279.533 411.093L282.233 389.832ZM372.775 436.483L375.202 417.366L422.854 423.417L420.426 442.533L372.775 436.483ZM420.448 383.409L442.247 457.243L416.603 453.987L399.982 391.612L406.136 392.394L374.453 448.635L348.809 445.379L388.37 379.336L420.448 383.409ZM510.094 425.208L507.974 441.9L479.719 438.313L479.697 437.741C474.102 437.031 469.305 435.506 465.306 433.166C461.378 430.772 458.45 427.716 456.522 423.996C454.656 420.285 454.015 416.129 454.599 411.529C455.199 406.804 456.87 402.847 459.612 399.658C462.416 396.477 466.024 394.187 470.434 392.788C474.914 391.336 479.951 390.965 485.546 391.675L530.493 397.383L521.613 467.321L497.554 464.266L505.665 400.389L515.108 412.58L487.133 409.027C484.771 408.727 482.866 409.054 481.418 410.007C479.97 410.96 479.112 412.494 478.844 414.608C478.576 416.721 479.023 418.421 480.187 419.705C481.35 420.99 483.113 421.783 485.475 422.082L510.094 425.208ZM500.218 431.345L474.148 461.294L446.639 457.801L473.641 427.971L500.218 431.345Z" fill="white"/>
<path d="M95.848 483.5V554H71.596V494.028L82.5 504.932H30.988L41.892 494.028V554H17.64V483.5H95.848ZM165.046 513.674V530.5H136.564L136.47 529.936C130.83 529.936 125.879 529.027 121.618 527.21C117.419 525.33 114.129 522.667 111.748 519.22C109.429 515.773 108.27 511.731 108.27 507.094C108.27 502.331 109.429 498.195 111.748 494.686C114.129 491.177 117.419 488.451 121.618 486.508C125.879 484.503 130.83 483.5 136.47 483.5H181.778V554H157.526V489.61L168.43 500.514H140.23C137.849 500.514 136 501.078 134.684 502.206C133.368 503.334 132.71 504.963 132.71 507.094C132.71 509.225 133.368 510.854 134.684 511.982C136 513.11 137.849 513.674 140.23 513.674H165.046ZM156.022 521.006L133.932 554H106.202L129.232 521.006H156.022ZM217.572 493.934H241.824V554H217.572V493.934ZM192.192 483.5H267.204V505.12H192.192V483.5ZM277.623 483.5H301.875V554H277.623V483.5ZM331.955 483.5H356.207V554H331.955V483.5ZM291.347 507.282H341.449V528.714H291.347V507.282ZM370.313 554V483.5H394.377V540.746L388.173 539.336L422.013 483.5H453.691V554H429.627V495.25L435.831 496.66L401.051 554H370.313ZM545.231 483.5V540.652L536.207 532.568H557.263V568.006H534.515V549.112L539.685 554H467.775V483.5H492.027V540.652L483.943 532.568H530.003L520.979 540.652V483.5H545.231ZM584.815 542.156V522.886H632.849V542.156H584.815ZM625.423 483.5L656.349 554H630.499L606.153 494.216H612.357L588.011 554H562.161L593.087 483.5H625.423Z" fill="#FE64FA"/>
<circle cx="521.741" cy="408.513" r="2.74148" fill="#151515"/>
<path d="M520.828 408.513C520.828 409.018 521.237 409.427 521.741 409.427C522.246 409.427 522.655 409.018 522.655 408.513H520.828ZM522.655 408.513L522.655 64L520.828 64L520.828 408.513H522.655Z" fill="#8F8FFF"/>
<circle cx="25.7415" cy="344.513" r="2.74148" fill="#151515"/>
<path d="M24.8276 344.513C24.8276 345.018 25.2368 345.427 25.7415 345.427C26.2462 345.427 26.6553 345.018 26.6553 344.513H24.8276ZM26.6553 344.513L26.6553 -3.99447e-08L24.8276 3.99447e-08L24.8276 344.513H26.6553Z" fill="#FE64FA"/>
<rect y="615.684" width="101.91" height="25.0688" rx="12.5344" transform="rotate(-38.3601 0 615.684)" fill="#FFEB1C"/>
<path d="M31.1562 609.267L33.8433 607.14C33.9897 607.269 34.1711 607.336 34.3876 607.343C34.5987 607.343 34.8414 607.284 35.1157 607.167C35.3846 607.043 35.6764 606.857 35.9909 606.608C36.4011 606.283 36.6866 605.991 36.8473 605.73C37.0148 605.464 37.0255 605.239 36.8794 605.054C36.782 604.931 36.6359 604.88 36.441 604.9C36.2408 604.914 35.9281 605.067 35.5031 605.359L34.1664 606.284C32.9514 607.123 31.9224 607.537 31.0795 607.526C30.2367 607.515 29.5446 607.167 29.0035 606.483C28.549 605.909 28.3343 605.301 28.3594 604.658C28.3846 604.015 28.6154 603.366 29.0519 602.709C29.4952 602.047 30.1134 601.402 30.9065 600.774C31.6791 600.162 32.4494 599.731 33.2174 599.479C33.9869 599.214 34.7002 599.139 35.3573 599.253C36.0213 599.361 36.576 599.662 37.0215 600.154L34.3344 602.281C34.2165 602.174 34.0643 602.122 33.8777 602.125C33.6979 602.123 33.4866 602.179 33.2436 602.294C33.0006 602.408 32.7321 602.582 32.4381 602.814C32.062 603.112 31.7944 603.385 31.6351 603.633C31.4827 603.876 31.4741 604.083 31.6094 604.254C31.7014 604.37 31.8414 604.421 32.0294 604.406C32.2242 604.385 32.5137 604.245 32.8977 603.985L34.4066 602.941C35.1965 602.394 35.8943 602.025 36.5 601.835C37.1002 601.638 37.628 601.609 38.0835 601.749C38.5458 601.884 38.9555 602.176 39.3127 602.628C39.7618 603.195 39.9866 603.823 39.9871 604.513C39.9876 605.202 39.7783 605.907 39.3592 606.628C38.9415 607.336 38.3292 608.01 37.5224 608.648C36.6883 609.309 35.8674 609.775 35.0598 610.047C34.2522 610.319 33.5083 610.391 32.8281 610.262C32.1547 610.128 31.5974 609.796 31.1562 609.267ZM43.0612 601.863L41.3972 599.76L46.638 595.612L48.302 597.715L43.0612 601.863ZM42.4267 591.956L51.8887 596.978L49.0683 599.21L41.2496 594.79L41.9265 594.254L44.4327 602.879L41.6123 605.111L38.8987 594.749L42.4267 591.956ZM49.3401 586.485L54.5026 593.008L52.3713 592.759L58.0941 588.23L59.961 590.589L52.7819 596.271L46.6941 588.579L49.3401 586.485ZM64.1969 579.497L65.6417 581.322L59.8471 585.909L58.4023 584.083L64.1969 579.497ZM60.94 583.559L62.7329 586.794L60.8512 586.482L66.6868 581.863L68.3426 583.955L60.8969 589.848L58.4171 585.556L54.8091 582.156L62.2036 576.304L63.8594 578.396L58.0751 582.974L58.2036 581.071L60.94 583.559Z" fill="#151515"/>
<circle cx="82.1111" cy="565.884" r="1.63492" transform="rotate(-8.90565 82.1111 565.884)" fill="#151515"/>
<circle cx="90.1474" cy="550.283" r="1.63492" transform="rotate(-8.90565 90.1474 550.283)" fill="#151515"/>
<path d="M90.238 549.491C92.3655 550.736 93.9729 552.835 94.7066 555.327C95.4404 557.819 95.2405 560.499 94.1508 562.777C93.0611 565.056 91.1709 566.747 88.896 567.478C86.6212 568.209 84.148 567.92 82.0206 566.675L82.5659 565.535C84.411 566.615 86.5559 566.865 88.5288 566.231C90.5017 565.597 92.141 564.131 93.0861 562.154C94.0312 560.178 94.2046 557.854 93.5682 555.693C92.9318 553.532 91.5378 551.711 89.6927 550.632L90.238 549.491Z" fill="white"/>
</svg>
